<svg width="1440" height="359" viewBox="0 0 1440 359" fill="none" xmlns="http://www.w3.org/2000/svg"><path fill="#4B6782" d="M0 0h1440v359H0z"/><path fill="url(#a)" d="M0 0h1440v359H0z"/><g opacity=".21"><mask id="c" maskUnits="userSpaceOnUse" x="0" y="0" width="1440" height="359"><path fill="#4B6782" d="M0 0h1440v359H0z"/><path fill="url(#b)" d="M0 0h1440v359H0z"/></mask><g mask="url(#c)"><g style="mix-blend-mode:multiply"><path d="M848.409 3.734l500.831-266.241c21.62-12.856 53.53-10.71 71.42 4.801 17.88 15.512 14.87 38.417-6.76 51.272L867.945 86.636c-10.073 5.989-15.47 14.069-15.829 23.377l-2.089 69.449c-.248 9.405-5.756 17.389-15.829 23.377-71.451 42.478-382.472 219.71-453.924 262.188-21.623 12.855-53.527 10.71-71.415-4.802-17.888-15.512-14.872-38.417 6.752-51.272l499.185-289.096c10.073-5.988 15.47-14.068 15.695-23.296l2.089-69.45c.359-9.308 5.756-17.388 15.829-23.377z" fill="#00B2FF"/><path d="M848.409 3.734l500.831-266.241c21.62-12.856 53.53-10.71 71.42 4.801 17.88 15.512 14.87 38.417-6.76 51.272L867.945 86.636c-10.073 5.989-15.47 14.069-15.829 23.377l-2.089 69.449c-.248 9.405-5.756 17.389-15.829 23.377-71.451 42.478-382.472 219.71-453.924 262.188-21.623 12.855-53.527 10.71-71.415-4.802-17.888-15.512-14.872-38.417 6.752-51.272l499.185-289.096c10.073-5.988 15.47-14.068 15.695-23.296l2.089-69.45c.359-9.308 5.756-17.388 15.829-23.377z" fill="url(#d)" fill-opacity=".4"/></g><g style="mix-blend-mode:multiply"><path d="M897.858 170.364L1398.69-95.878c21.62-12.855 53.53-10.71 71.42 4.802 17.88 15.511 14.87 38.416-6.76 51.272l-545.956 293.07c-10.073 5.988-15.47 14.068-15.829 23.376l-2.089 69.45c-.248 9.404-5.756 17.388-15.829 23.376-71.451 42.478-382.472 219.71-453.923 262.188-21.624 12.855-53.528 10.71-71.416-4.802-17.888-15.512-14.872-38.417 6.752-51.272l499.185-289.095c10.073-5.989 15.47-14.069 15.695-23.297l2.089-69.45c.359-9.308 5.756-17.388 15.829-23.376z" fill="#00B2FF"/><path d="M897.858 170.364L1398.69-95.878c21.62-12.855 53.53-10.71 71.42 4.802 17.88 15.511 14.87 38.416-6.76 51.272l-545.956 293.07c-10.073 5.988-15.47 14.068-15.829 23.376l-2.089 69.45c-.248 9.404-5.756 17.388-15.829 23.376-71.451 42.478-382.472 219.71-453.923 262.188-21.624 12.855-53.528 10.71-71.416-4.802-17.888-15.512-14.872-38.417 6.752-51.272l499.185-289.095c10.073-5.989 15.47-14.069 15.695-23.297l2.089-69.45c.359-9.308 5.756-17.388 15.829-23.376z" fill="url(#e)" fill-opacity=".4"/></g><g style="mix-blend-mode:multiply"><path d="M957.667 335.274L1458.5 69.032c21.62-12.855 53.53-10.71 71.41 4.802 17.89 15.512 14.88 38.417-6.75 51.272l-545.957 293.07c-10.073 5.988-15.47 14.069-15.829 23.376l-2.089 69.45c-.248 9.404-5.756 17.388-15.829 23.377-71.452 42.477-382.472 219.71-453.924 262.187-21.623 12.856-53.527 10.71-71.415-4.801-17.888-15.512-14.872-38.417 6.751-51.272l499.186-289.096c10.073-5.989 15.47-14.069 15.694-23.297l2.089-69.449c.36-9.308 5.757-17.389 15.83-23.377z" fill="#00B2FF"/><path d="M957.667 335.274L1458.5 69.032c21.62-12.855 53.53-10.71 71.41 4.802 17.89 15.512 14.88 38.417-6.75 51.272l-545.957 293.07c-10.073 5.988-15.47 14.069-15.829 23.376l-2.089 69.45c-.248 9.404-5.756 17.388-15.829 23.377-71.452 42.477-382.472 219.71-453.924 262.187-21.623 12.856-53.527 10.71-71.415-4.801-17.888-15.512-14.872-38.417 6.751-51.272l499.186-289.096c10.073-5.989 15.47-14.069 15.694-23.297l2.089-69.449c.36-9.308 5.757-17.389 15.83-23.377z" fill="url(#f)" fill-opacity=".4"/></g></g></g><path fill="url(#g)" d="M0 0h1440v359H0z"/><mask id="i" maskUnits="userSpaceOnUse" x="0" y="0" width="1440" height="359"><path fill="url(#h)" d="M0 0h1440v359H0z"/></mask><g mask="url(#i)"><g style="mix-blend-mode:multiply" opacity=".13"><path d="M899.884-66.576l528.926-281.177c22.84-13.576 56.53-11.311 75.42 5.071 18.89 16.382 15.71 40.572-7.13 54.148L920.516 20.976c-10.638 6.325-16.338 14.858-16.717 24.688l-2.206 73.346c-.262 9.931-6.079 18.363-16.717 24.687-75.46 44.861-403.927 232.036-479.387 276.896-22.837 13.576-56.53 11.311-75.422-5.071-18.891-16.382-15.706-40.572 7.131-54.148L864.385 56.061c10.639-6.325 16.338-14.858 16.576-24.604l2.206-73.345c.379-9.83 6.079-18.364 16.717-24.688z" fill="url(#j)" style="mix-blend-mode:multiply"/><path d="M899.884-66.576l528.926-281.177c22.84-13.576 56.53-11.311 75.42 5.071 18.89 16.382 15.71 40.572-7.13 54.148L920.516 20.976c-10.638 6.325-16.338 14.858-16.717 24.688l-2.206 73.346c-.262 9.931-6.079 18.363-16.717 24.687-75.46 44.861-403.927 232.036-479.387 276.896-22.837 13.576-56.53 11.311-75.422-5.071-18.891-16.382-15.706-40.572 7.131-54.148L864.385 56.061c10.639-6.325 16.338-14.858 16.576-24.604l2.206-73.345c.379-9.83 6.079-18.364 16.717-24.688z" fill="#0784B2"/></g><g style="mix-blend-mode:multiply" opacity=".13"><path d="M920.103 133.095l528.927-281.177c22.84-13.576 56.53-11.311 75.42 5.071 18.89 16.382 15.71 40.572-7.13 54.148L940.735 220.649c-10.638 6.324-16.338 14.857-16.717 24.687l-2.206 73.346c-.262 9.932-6.079 18.363-16.717 24.688-75.46 44.86-403.928 232.035-479.387 276.895-22.837 13.577-56.53 11.311-75.422-5.071-18.891-16.382-15.706-40.572 7.131-54.148l527.187-305.313c10.638-6.324 16.338-14.858 16.575-24.604l2.206-73.345c.38-9.83 6.08-18.364 16.718-24.688z" fill="url(#k)" style="mix-blend-mode:multiply"/><path d="M920.103 133.095l528.927-281.177c22.84-13.576 56.53-11.311 75.42 5.071 18.89 16.382 15.71 40.572-7.13 54.148L940.735 220.649c-10.638 6.324-16.338 14.857-16.717 24.687l-2.206 73.346c-.262 9.932-6.079 18.363-16.717 24.688-75.46 44.86-403.928 232.035-479.387 276.895-22.837 13.577-56.53 11.311-75.422-5.071-18.891-16.382-15.706-40.572 7.131-54.148l527.187-305.313c10.638-6.324 16.338-14.858 16.575-24.604l2.206-73.345c.38-9.83 6.08-18.364 16.718-24.688z" fill="#0784B2"/></g><g style="mix-blend-mode:multiply" opacity=".13"><path d="M936.884 335.504L1465.81 54.327c22.84-13.576 56.53-11.311 75.42 5.071 18.89 16.382 15.71 40.572-7.13 54.148l-576.584 309.51c-10.638 6.325-16.338 14.858-16.717 24.688l-2.206 73.346c-.262 9.931-6.079 18.363-16.717 24.687-75.46 44.861-403.927 232.035-479.387 276.896-22.837 13.576-56.53 11.311-75.422-5.071-18.891-16.382-15.706-40.572 7.131-54.148l527.187-305.313c10.639-6.325 16.338-14.858 16.576-24.604l2.206-73.345c.379-9.83 6.079-18.364 16.717-24.688z" fill="url(#l)" style="mix-blend-mode:multiply"/><path d="M936.884 335.504L1465.81 54.327c22.84-13.576 56.53-11.311 75.42 5.071 18.89 16.382 15.71 40.572-7.13 54.148l-576.584 309.51c-10.638 6.325-16.338 14.858-16.717 24.688l-2.206 73.346c-.262 9.931-6.079 18.363-16.717 24.687-75.46 44.861-403.927 232.035-479.387 276.896-22.837 13.576-56.53 11.311-75.422-5.071-18.891-16.382-15.706-40.572 7.131-54.148l527.187-305.313c10.639-6.325 16.338-14.858 16.576-24.604l2.206-73.345c.379-9.83 6.079-18.364 16.717-24.688z" fill="#0784B2"/></g></g><path fill="#0038C7" d="M0 0h1440v359H0z"/><path fill="url(#m)" fill-opacity=".75" d="M0 0h1440v359H0z"/><mask id="p" maskUnits="userSpaceOnUse" x="0" y="0" width="1440" height="359"><path fill="url(#n)" d="M0 0h1440v359H0z"/></mask><path opacity=".3" d="M161.002 531.633l-.177-.154-2.578 1.533c-33.211 19.744-81.901 16.317-109.05-7.225-27.15-23.543-22.756-58.528 10.455-78.272l240.758-143.13 23.133-13.753c16.755-9.961 25.817-23.478 26.196-38.923l.001-.006 3.331-110.75v-.007c.376-14.26 8.482-26.237 24.078-35.51L568.856-8.533c33.211-19.744 81.901-16.317 109.05 7.226s22.756 58.528-10.455 78.272l-124.449 73.984-75.183 44.696-64.045 38.075c-16.742 9.953-25.996 23.313-26.411 39.053l-3.154 110.91v.004c-.376 14.265-8.487 26.241-23.864 35.383L161.002 531.633zM312.15-2.644v.007l-.001.008-3.331 110.76v.007c-.376 14.255-8.691 26.361-24.079 35.509-56.974 33.872-172.235 102.232-287.5 170.594l-.273.163c-115.171 68.307-230.298 136.588-287.231 170.435-33.211 19.744-81.901 16.317-109.05-7.226-27.15-23.543-22.756-58.528 10.455-78.272l.212-.126.002-.001L258.327 15.238l.002-.001c16.755-9.961 25.818-23.479 26.196-38.924l.001-.006 3.33-110.735.001-.007c.547-14.133 8.714-26.39 24.078-35.524l41.983-24.959c33.211-19.744 81.901-16.317 109.05 7.226 27.149 23.542 22.756 58.527-10.455 78.271L338.56-41.676c-16.763 9.965-25.81 23.48-26.41 39.032zM417.931 416.04v-.006c.376-14.261 8.481-26.238 24.078-35.51l.668-.397.667-.397.668-.397.668-.397.668-.397.667-.397.668-.397.667-.397.668-.396.668-.397.667-.397.668-.397.668-.397.667-.397.668-.397.668-.397.667-.397.668-.397.667-.396.668-.397.668-.397.667-.397.668-.397.667-.397.668-.397.668-.397.667-.396.668-.397.667-.397.668-.397.667-.397.668-.397.667-.397.668-.397.667-.396.668-.397.668-.397.667-.397.668-.397.667-.397.668-.396.667-.397.668-.397.667-.397.668-.397.667-.397.668-.396.667-.397.668-.397.667-.397.668-.397.667-.396.667-.397.668-.397.667-.397.668-.397.667-.396.668-.397.667-.397.668-.397.667-.397.667-.396.668-.397.667-.397.668-.397.667-.396.668-.397.667-.397.667-.397.668-.397.667-.396.668-.397.667-.397.667-.397.668-.396.667-.397.667-.397.668-.397.667-.396.668-.397.667-.397.667-.397.668-.396.667-.397.667-.397.668-.397.667-.396.667-.397.668-.397.667-.396.667-.397.668-.397.667-.397.667-.396.668-.397.667-.397.667-.396.668-.397.667-.397.667-.397.667-.396.668-.397.667-.397.667-.396.668-.397.667-.397.667-.397.667-.396.668-.397.667-.397.667-.396.667-.397.668-.397.667-.396.667-.397.667-.397.668-.396.667-.397.667-.397.667-.396.668-.397.667-.397.667-.396.667-.397.668-.397.667-.396.667-.397.667-.397.668-.396.667-.397.667-.397.667-.396.667-.397.668-.397.667-.396.667-.397.667-.397.667-.396.668-.397.667-.397.667-.396.667-.397.667-.397.668-.396.667-.397.667-.396.667-.397.667-.397.668-.396.667-.397.667-.397.667-.396.667-.397.667-.397.667-.396.668-.397.667-.396.667-.397.667-.397.667-.396.667-.397.668-.396.667-.397.667-.397.667-.396.667-.397.667-.397.668-.396.667-.397.667-.396.667-.397.667-.397.667-.396.667-.397.667-.396.668-.397.667-.397.667-.396.667-.397.667-.396.667-.397.667-.397.667-.396.667-.397.668-.396.667-.397.667-.397.667-.396.667-.397.667-.396.667-.397.667-.397.667-.396.668-.397.667-.396.667-.397.667-.397.667-.396.667-.397.667-.396.667-.397.667-.397.667-.396.668-.397.667-.396.667-.397.667-.396.667-.397.667-.397.667-.396.667-.397.667-.396.667-.397.667-.396.667-.397.668-.397.667-.396.667-.397.667-.396.667-.397.667-.397.667-.396.667-.397.667-.396.667-.397.667-.396.667-.397.667-.397.668-.396.667-.397.667-.396.667-.397.667-.396.667-.397.667-.397.667-.396.667-.397.667-.396.667-.397.667-.396.667-.397.667-.397.668-.396.667-.397.667-.396.667-.397.667-.396.667-.397.667-.397.667-.396.667-.397.667-.396.667-.397.667-.396.667-.397.667-.397.667-.396.668-.397.667-.396.667-.397.667-.396.667-.397.667-.396.667-.397.667-.397.667-.396.667-.397.667-.396.667-.397.667-.396.667-.397.667-.397.667-.396.668-.397.667-.396.667-.397.667-.396.667-.397.667-.397.667-.396.667-.397.667-.396.667-.397.667-.396.667-.397.667-.397.668-.396.667-.397.667-.396.667-.397.667-.396.667-.397.667-.397.667-.396.667-.397.667-.396.667-.397.667-.397.667-.396.668-.397.667-.396.667-.397.667-.396.667-.397.667-.397.667-.396.667-.397.667-.396.667-.397.667-.397.667-.396.668-.397.667-.396.667-.397.667-.396.667-.397.667-.397.667-.396.667-.397.667-.396.668-.397.667-.397.667-.396.667-.397.667-.396.667-.397.667-.397.667-.396.667-.397.668-.396.667-.397.667-.397.667-.396.667-.397.667-.396.667-.397.667-.397.667-.396.668-.397.667-.396.667-.397.667-.397.667-.396.667-.397.667-.396.668-.397.667-.397.667-.396.667-.397.667-.397.667-.396.667-.397.668-.396.667-.397.667-.397.667-.396.667-.397.667-.397.668-.396.667-.397.667-.396.667-.397.667-.397.667-.396.668-.397.667-.397.667-.396.667-.397.667-.397.668-.396.667-.397.667-.396.667-.397.667-.397.668-.396.667-.397.667-.397.667-.396.667-.397.668-.397.667-.396.667-.397.667-.397.667-.396.668-.397.667-.397.667-.396.667-.397.668-.397.667-.396.667-.397.667-.397.668-.396.667-.397.667-.397.667-.396.668-.397.667-.397.667-.396.667-.397.668-.397.667-.396.667-.397.667-.397.668-.397.667-.396.667-.397.668-.397.667-.396.667-.397.667-.397.668-.396.667-.397.667-.397.668-.397.667-.396.667-.397.668-.397.667-.396.667-.397.667-.397.668-.397.667-.396.668-.397.667-.397.667-.397.667-.396.668-.397.667-.397.668-.396.667-.397.667-.397.668-.397.667-.396.667-.397.668-.397.667-.397.668-.396.667-.397.667-.397.668-.397.667-.397.667-.396.668-.397.667-.397.668-.397.667-.396.667-.397.668-.397.667-.397.668-.396.667-.397.668-.397.667-.397.668-.397.667-.396.667-.397.668-.397.667-.397.668-.397.667-.396.668-.397.667-.397.668-.397.667-.397.668-.397.667-.396.668-.397.667-.397.668-.397.667-.397.668-.396.667-.397.668-.397.667-.397.668-.397.667-.397.668-.397.667-.396.668-.397.667-.397.668-.397.668-.397.667-.397.668-.397.667-.396.668-.397.667-.397.668-.397.668-.397.667-.397.668-.397.667-.397.668-.396.668-.397.667-.397.668-.397.667-.397.668-.397.668-.397.667-.397.668-.397.668-.397.667-.397.668-.396.668-.397.667-.397.668-.397.668-.397.667-.397.668-.397.668-.397c33.211-19.744 81.9-16.317 109.05 7.226 27.149 23.543 22.755 58.527-10.456 78.271l-.214.128-413.615 245.893c-16.73 9.946-26 23.306-26.196 38.935l-.001.016-3.33 110.713v.009c-.549 14.133-8.715 26.389-24.079 35.523L372.83 719.09c-33.211 19.744-81.901 16.317-109.05-7.225-27.149-23.543-22.756-58.528 10.455-78.272l114.168-67.872c16.755-9.961 25.817-23.478 26.196-38.923v-.007l3.332-110.75z" stroke="url(#o)" stroke-width="6" mask="url(#p)"/><defs><linearGradient id="a" x1="15.606" y1="285.046" x2="1003.31" y2="-334.373" gradientUnits="userSpaceOnUse"><stop stop-color="#1E77C2"/><stop offset="1" stop-color="#00A5D7"/></linearGradient><linearGradient id="b" x1="15.606" y1="285.046" x2="1003.31" y2="-334.373" gradientUnits="userSpaceOnUse"><stop stop-color="#30FFC2"/><stop offset="1" stop-color="#20A4E6"/></linearGradient><linearGradient id="d" x1="3248.42" y1="-1305.5" x2="1779.75" y2="1773.26" gradientUnits="userSpaceOnUse"><stop stop-color="#326BFF"/><stop offset="1" stop-color="#13E3FF"/></linearGradient><linearGradient id="e" x1="3297.87" y1="-1138.87" x2="1829.2" y2="1939.89" gradientUnits="userSpaceOnUse"><stop stop-color="#326BFF"/><stop offset="1" stop-color="#13E3FF"/></linearGradient><linearGradient id="f" x1="3357.68" y1="-973.956" x2="1889" y2="2104.8" gradientUnits="userSpaceOnUse"><stop stop-color="#326BFF"/><stop offset="1" stop-color="#13E3FF"/></linearGradient><linearGradient id="g" y1="376.232" x2="788.555" y2="-473.83" gradientUnits="userSpaceOnUse"><stop stop-color="#0D3575"/><stop offset="1" stop-color="#00D2ED"/></linearGradient><linearGradient id="h" y1="491.537" x2="570.728" y2="-596.573" gradientUnits="userSpaceOnUse"><stop stop-color="#326BFF"/><stop offset="1" stop-color="#05FF00"/></linearGradient><linearGradient id="j" x1="443.092" y1="513.532" x2="1322.63" y2="-500.739" gradientUnits="userSpaceOnUse"><stop stop-color="#0694CE"/><stop offset="1" stop-color="#0694CE" stop-opacity="0"/></linearGradient><linearGradient id="k" x1="463.31" y1="713.203" x2="1342.84" y2="-301.068" gradientUnits="userSpaceOnUse"><stop stop-color="#0694CE"/><stop offset="1" stop-color="#0694CE" stop-opacity="0"/></linearGradient><linearGradient id="l" x1="480.092" y1="915.612" x2="1359.63" y2="-98.659" gradientUnits="userSpaceOnUse"><stop stop-color="#0694CE"/><stop offset="1" stop-color="#0694CE" stop-opacity="0"/></linearGradient><linearGradient id="m" x1="106" y1="290.79" x2="1131.89" y2="-412.888" gradientUnits="userSpaceOnUse"><stop offset=".536" stop-color="#0B81C2"/><stop offset="1" stop-color="#03A6DA"/></linearGradient><linearGradient id="n" y1="491.537" x2="570.728" y2="-596.573" gradientUnits="userSpaceOnUse"><stop stop-color="#326BFF"/><stop offset="1" stop-color="#05FF00"/></linearGradient><linearGradient id="o" x1="83" y1="188.116" x2="845.84" y2="-80.792" gradientUnits="userSpaceOnUse"><stop stop-color="#178BD3"/><stop offset="1" stop-color="#0094FF" stop-opacity="0"/></linearGradient></defs></svg>