<svg width="720" height="270" viewBox="0 0 720 270" fill="none" xmlns="http://www.w3.org/2000/svg"><g clip-path="url(#a)"><path d="M720 0H0v270h720V0z" fill="url(#b)"/><path d="M398.581 337.506c-17.189 11.904-42.55 9.918-56.77-4.446-14.219-14.366-11.822-35.576 5.367-47.481l120.004-83.109 11.53-7.986c8.008-5.545 12.298-13.028 12.477-21.574l1.66-64.314c.197-8.708 4.469-16.028 12.583-21.647l356.422-251.242c17.189-11.904 42.551-9.917 56.77 4.447 14.22 14.365 11.822 35.576-5.367 47.481L590.359 115.658l-37.474 25.953-31.923 22.108c-8.007 5.546-12.386 12.94-12.583 21.648l-1.572 64.403c-.197 8.709-4.469 16.028-12.476 21.574l-95.661 66.251-.089-.089zm74.346-410.467l281.794-199.557c17.189-11.904 42.55-9.918 56.77 4.446 14.219 14.365 11.822 35.577-5.367 47.481L488.457 3.809c-8.007 5.546-12.297 13.029-12.583 21.648l-1.661 64.314c-.197 8.709-4.575 16.102-12.582 21.648l-170.29 117.935c-17.189 11.905-42.55 9.918-56.77-4.447-14.22-14.364-11.822-35.576 5.367-47.48l.107-.074 206.162-142.78c8.008-5.545 12.298-13.027 12.476-21.573l1.661-64.314c.285-8.62 4.575-16.102 12.583-21.648zm53.537 504.021l-20.925 14.493c-17.19 11.904-42.551 9.918-56.77-4.446-14.22-14.366-11.823-35.576 5.367-47.481l56.905-39.41c8.007-5.546 12.297-13.028 12.476-21.574l1.661-64.313c.197-8.71 4.469-16.029 12.583-21.648 56.798-39.337 519.199-364.078 575.999-403.415 17.19-11.904 42.55-9.917 56.77 4.447 14.22 14.365 11.82 35.576-5.37 47.481l-.11.073-611.866 428.258c-8.007 5.546-12.386 12.94-12.476 21.574l-1.661 64.314c-.285 8.619-4.575 16.102-12.583 21.647z" fill="url(#c)"/></g><defs><linearGradient id="b" y1="282.96" x2="563.195" y2="-120.665" gradientUnits="userSpaceOnUse"><stop stop-color="#288AE8"/><stop offset="1" stop-color="#00D2ED"/></linearGradient><linearGradient id="c" x1="296.5" y1="190.204" x2="686.131" y2="57.863" gradientUnits="userSpaceOnUse"><stop stop-color="#1AA4E9"/><stop offset="1" stop-color="#01BEE6"/></linearGradient><clipPath id="a"><path fill="#fff" d="M0 0h720v270H0z"/></clipPath></defs></svg>