<svg width="1440" height="360" viewBox="0 0 1440 360" fill="none" xmlns="http://www.w3.org/2000/svg"><g clip-path="url(#a)"><path fill="url(#b)" d="M0 0h1440v360H0z"/><path d="M799.801 613.092c-27.114 22.513-67.118 18.756-89.548-8.409-22.431-27.165-18.649-67.278 8.466-89.791l189.292-157.169 18.189-15.101c12.63-10.488 19.398-24.638 19.679-40.799l2.62-121.624c.311-16.47 7.049-30.312 19.848-40.939l562.223-475.126c27.11-22.512 67.11-18.756 89.54 8.41 22.43 27.165 18.65 67.277-8.46 89.79l-509.34 431.219-59.11 49.081-50.356 41.809c-12.631 10.487-19.537 24.469-19.848 40.938l-2.48 121.793c-.311 16.47-7.049 30.312-19.68 40.799L799.941 613.261l-.14-.169zm117.272-776.241l444.497-377.384c27.12-22.513 67.12-18.756 89.55 8.409 22.43 27.165 18.65 67.278-8.46 89.791L941.57-17.966c-12.63 10.487-19.397 24.638-19.848 40.939l-2.619 121.624c-.311 16.469-7.218 30.451-19.848 40.938l-268.614 223.03c-27.114 22.512-67.119 18.756-89.549-8.41-22.43-27.165-18.648-67.277 8.466-89.79l.168-.14 325.2-270.012c12.631-10.487 19.398-24.638 19.68-40.799l2.619-121.624c.45-16.301 7.218-30.451 19.848-40.939zm84.447 953.165l-33.005 27.406c-27.114 22.513-67.119 18.756-89.549-8.409-22.43-27.165-18.648-67.278 8.466-89.791l89.763-74.529c12.631-10.487 19.398-24.638 19.68-40.799l2.619-121.624c.311-16.469 7.046-30.312 19.846-40.939 89.6-74.389 818.98-688.513 908.58-762.902 27.11-22.513 67.12-18.756 89.55 8.409 22.43 27.165 18.64 67.278-8.47 89.791l-.17.139-965.16 809.886c-12.63 10.487-19.54 24.469-19.68 40.799l-2.62 121.624c-.45 16.3-7.22 30.451-19.85 40.939z" fill="url(#c)"/><path fill-rule="evenodd" clip-rule="evenodd" d="M-1.714 173.644l292.5-175.5-2.572-4.288-292.5 175.5 2.572 4.288zM387.5 103.816L556.281 3.147l-2.562-4.294L384.938 99.522a63.5 63.5 0 0 0-30.908 51.69l-4.072 90.745a58.502 58.502 0 0 1-27.973 47.317l-110.787 67.592 2.604 4.268 110.787-67.592a63.5 63.5 0 0 0 30.364-51.361l4.072-90.745a58.5 58.5 0 0 1 28.474-47.62zM314 1.038l-1.479 96.467a63.498 63.498 0 0 1-30.977 53.571L1.28 318.147l-2.56-4.294 280.264-167.072a58.5 58.5 0 0 0 28.538-49.353L309 .963l5 .076zm378.634 14.823L690.47 2.11l-4.939.778 2.164 13.75c3.678 23.366-7.078 46.649-27.255 58.995l-255.583 156.39a63.5 63.5 0 0 0-30.357 54.164V361h5v-74.812a58.501 58.501 0 0 1 27.967-49.9L663.049 79.899c21.902-13.401 33.578-38.674 29.585-64.038z" fill="url(#d)"/></g><defs><linearGradient id="b" x1="194.5" y1="159.944" x2="1415.01" y2="118.06" gradientUnits="userSpaceOnUse"><stop offset=".032" stop-color="#096FC4"/><stop offset="1" stop-color="#0581CF"/></linearGradient><linearGradient id="c" x1="707.5" y1="356.99" x2="1365.17" y2="44.539" gradientUnits="userSpaceOnUse"><stop offset=".16" stop-color="#0768BC"/><stop offset="1" stop-color="#037BC9"/></linearGradient><linearGradient id="d" x1="582.389" y1="21.556" x2="350.434" y2="517.531" gradientUnits="userSpaceOnUse"><stop offset=".068" stop-color="#0B76CA"/><stop offset="1" stop-color="#157CCD"/></linearGradient><clipPath id="a"><path fill="#fff" d="M0 0h1440v360H0z"/></clipPath></defs></svg>