<svg width="451" height="269" viewBox="0 0 451 269" fill="none" xmlns="http://www.w3.org/2000/svg"><path opacity=".3" d="M271.884 338.291l.086.104 83.864-69.439c6.742-5.581 10.128-13.186 9.862-22.551v-.002l-1.949-72.472-91.863 164.36zm0 0l-1.156.956m1.156-.956l-1.156.956m0 0c-14.537 12.037-37.178 8.958-50.656-7.32-13.477-16.277-12.279-39.095 2.258-51.132l106.654-88.309 10.248-8.485c7.494-6.205 11.247-14.897 10.947-24.949l-1.862-72.363v-.004m-77.589 252.562l77.589-252.562m0 0c-.266-9.362 3.117-16.967 9.956-22.63m-9.956 22.63l9.956-22.63m0 0L443.198-6.26m-84.925 70.316L443.198-6.26m0 0c14.537-12.037 37.178-8.958 50.656 7.32m-50.656-7.32l50.656 7.32m0 0c13.477 16.277 12.279 39.095-2.258 51.132m2.258-51.132l-2.258 51.132m0 0l-55.13 45.647m55.13-45.647l-55.13 45.647m0 0l-33.305 27.577m33.305-27.577l-33.305 27.577m0 0l-28.372 23.491m28.372-23.491l-28.372 23.491m0 0c-7.486 6.198-11.332 14.781-11.042 25.023l11.042-25.023zM325.215-7.641v.009l1.863 72.369v.004c.265 9.358-3.21 17.044-9.957 22.63-25.238 20.896-76.298 63.064-127.361 105.233l-.009.008C138.686 234.783 87.62 276.956 62.379 297.855c-14.538 12.037-37.179 8.958-50.656-7.32-13.478-16.277-12.28-39.095 2.258-51.132l.094-.078v-.001L300.7 2.442h.001c7.494-6.205 11.246-14.896 10.948-24.946v-.004l-1.863-72.354v-.006c-.182-9.273 3.221-17.059 9.956-22.636l18.598-15.399c14.538-12.037 37.179-8.958 50.656 7.32 13.478 16.277 12.28 39.095-2.258 51.132l-50.48 41.797c-7.496 6.207-11.242 14.896-11.042 25.013zm61.461 275.681v-.004c-.266-9.362 3.117-16.967 9.956-22.63l.296-.245.296-.245.296-.245.295-.244.296-.245.296-.245.296-.245.296-.245.295-.245.296-.245.296-.245.296-.245.295-.244.296-.245.296-.245.296-.245.295-.245.296-.245.296-.245.296-.245.295-.244.296-.245.296-.245.296-.245.295-.245.296-.245.296-.245.295-.245.296-.244.296-.245.296-.245.295-.245.296-.245.296-.245.295-.244.296-.245.296-.245.296-.245.295-.245.296-.245.296-.245.295-.244.296-.245.296-.245.295-.245.296-.245.296-.245.296-.244.295-.245.296-.245.296-.245.295-.245.296-.244.296-.245.295-.245.296-.245.296-.245.295-.245.296-.244.296-.245.295-.245.296-.245.296-.245.295-.244.296-.245.296-.245.295-.245.296-.245.296-.244.295-.245.296-.245.296-.245.295-.245.296-.244.296-.245.295-.245.296-.245.295-.245.296-.244.296-.245.295-.245.296-.245.296-.244.295-.245.296-.245.296-.245.295-.245.296-.244.295-.245.296-.245.296-.245.295-.244.296-.245.295-.245.296-.245.296-.245.295-.244.296-.245.296-.245.295-.245.296-.244.295-.245.296-.245.296-.245.295-.244.296-.245.295-.245.296-.245.296-.244.295-.245.296-.245.295-.245.296-.244.296-.245.295-.245.296-.245.295-.244.296-.245.295-.245.296-.245.296-.244.295-.245.296-.245.295-.245.296-.244.296-.245.295-.245.296-.244.295-.245.296-.245.295-.245.296-.244.296-.245.295-.245.296-.245.295-.244.296-.245.295-.245.296-.244.295-.245.296-.245.296-.245.295-.244.296-.245.295-.245.296-.245.295-.244.296-.245.296-.245.295-.244.296-.245.295-.245.296-.245.295-.244.296-.245.295-.245.296-.244.295-.245.296-.245.296-.244.295-.245.296-.245.295-.245.296-.244.295-.245.296-.245.295-.244.296-.245.295-.245.296-.245.295-.244.296-.245.296-.245.295-.244.296-.245.295-.245.296-.244.295-.245.296-.245.295-.245.296-.244.295-.245.296-.245.295-.244.296-.245.295-.245.296-.244.295-.245.296-.245.296-.244.295-.245.296-.245.295-.245.296-.244.295-.245.296-.245.295-.244.296-.245.295-.245.296-.244.295-.245.296-.245.295-.244.296-.245.295-.245.296-.244.295-.245.296-.245.295-.244.296-.245.295-.245.296-.245.295-.244.296-.245.295-.245.296-.244.295-.245.296-.245.296-.244.295-.245.296-.245.295-.244.296-.245.295-.245.296-.244.295-.245.296-.245.295-.244.296-.245.295-.245.296-.244.295-.245.296-.245.295-.244.296-.245.295-.245.296-.244.295-.245.296-.245.295-.245.296-.244.295-.245.296-.245.295-.244.296-.245.295-.245.296-.244.295-.245.296-.245.295-.244.296-.245.295-.245.296-.244.295-.245.296-.245.295-.244.296-.245.295-.245.296-.244.295-.245.296-.245.295-.244.296-.245.295-.245.296-.244.295-.245.296-.245.295-.244.296-.245.295-.245.296-.244.295-.245.296-.245.295-.245.296-.244.295-.245.296-.245.295-.244.296-.245.295-.245.296-.244.295-.245.296-.245.295-.244.296-.245.295-.245.296-.244.295-.245.296-.245.295-.244.296-.245.295-.245.296-.244.295-.245.296-.245.296-.244.295-.245.296-.245.295-.244.296-.245.295-.245.296-.245.295-.244.296-.245.295-.245.296-.244.295-.245.296-.245.295-.244.296-.245.295-.245.296-.244.295-.245.296-.245.295-.244.296-.245.295-.245.296-.244.295-.245.296-.245.295-.245.296-.244.295-.245.296-.245.296-.244.295-.245.296-.245.295-.244.296-.245.295-.245.296-.244.295-.245.296-.245.295-.245.296-.244.295-.245.296-.245.295-.244.296-.245.295-.245.296-.244.296-.245.295-.245.296-.245.295-.244.296-.245.295-.245.296-.244.295-.245.296-.245.295-.244.296-.245.295-.245.296-.245.296-.244.295-.245.296-.245.295-.244.296-.245.295-.245.296-.245.295-.244.296-.245.296-.245.295-.244.296-.245.295-.245.296-.245.295-.244.296-.245.295-.245.296-.244.296-.245.295-.245.296-.245.295-.244.296-.245.295-.245.296-.245.295-.244.296-.245.296-.245.295-.244.296-.245.295-.245.296-.245.296-.244.295-.245.296-.245.295-.245.296-.244.295-.245.296-.245.296-.245.295-.244.296-.245.295-.245.296-.245.296-.244.295-.245.296-.245.295-.245.296-.244.295-.245.296-.245.296-.245.295-.244.296-.245.295-.245.296-.245.296-.244.295-.245.296-.245.296-.245.295-.244.296-.245.295-.245.296-.245.296-.244.295-.245.296-.245.295-.245.296-.245.296-.244.295-.245.296-.245.296-.245.295-.244.296-.245.295-.245.296-.245.296-.245.295-.244.296-.245.296-.245.295-.245.296-.245.296-.244.295-.245.296-.245.296-.245.295-.244.296-.245.295-.245.296-.245.296-.245.295-.244.296-.245.296-.245.295-.245.296-.245.296-.245.295-.244.296-.245.296-.245.295-.245.296-.245.296-.244.296-.245.295-.245.296-.245.296-.245.295-.244.296-.245.296-.245.295-.245.296-.245.296-.245.295-.244.296-.245.296-.245.295-.245.296-.245.296-.245.296-.245.295-.244.296-.245.296-.245.295-.245.296-.245.296-.245.296-.244.295-.245.296-.245.296-.245.296-.245.295-.245.296-.245.296-.244.295-.245.296-.245.296-.245.296-.245.295-.245.296-.245.296-.245.296-.244.295-.245.296-.245.296-.245.296-.245.295-.245.296-.245.296-.245.296-.245.295-.244.296-.245.296-.245.296-.245.296-.245.295-.245.296-.245c14.538-12.037 37.179-8.957 50.656 7.32 13.478 16.278 12.28 39.096-2.258 51.133l-.095.078-183.228 151.711c-7.482 6.196-11.334 14.779-10.947 24.952v.01l1.862 72.342v.003c.183 9.275-3.22 17.062-9.956 22.639l-18.598 15.399c-14.537 12.037-37.178 8.958-50.656-7.32-13.477-16.277-12.279-39.095 2.258-51.132l50.575-41.876c7.494-6.204 11.246-14.896 10.948-24.946l-.001-.003-1.862-72.363z" stroke="url(#a)" stroke-width="3"/><defs><linearGradient id="a" x1="225.287" y1="111.83" x2="584.686" y2="6.867" gradientUnits="userSpaceOnUse"><stop stop-color="#8BC3E6"/><stop offset="1" stop-color="#01237A"/></linearGradient></defs></svg>