<svg xmlns="http://www.w3.org/2000/svg" width="720" height="270" viewBox="0 0 720 270" fill="none"><g clip-path="url(#a)"><path fill-rule="evenodd" clip-rule="evenodd" d="M562.041-2.659l-296.436 246.49.942 1.133-.942-1.133a52.677 52.677 0 0 0-14.837 19.997l-2.15 5.086 2.763 1.168 2.15-5.086-1.143-.483 1.143.483a49.678 49.678 0 0 1 13.992-18.858L563.959-.352l-1.918-2.307zm52.266 65.821l75.205-65.796 1.975 2.257-75.205 65.797c-11.235 9.83-17.461 24.218-16.947 39.171l1.81 52.664c.555 16.158-6.313 31.679-18.632 42.101l-86.044 72.793-1.938-2.29 86.044-72.793c11.616-9.827 18.095-24.466 17.572-39.708l-1.81-52.664c-.545-15.852 6.055-31.108 17.97-41.532zM573.001.06l2.484 62.334c.621 15.584-6.083 30.556-18.104 40.434L353.547 270.347l1.905 2.317 203.834-167.518c12.748-10.477 19.855-26.35 19.197-42.871L575.999-.06l-2.998.12zm57.617 148.66l90.883-81.085 1.997 2.239-90.882 81.084A49.777 49.777 0 0 0 616 188.099v82.905h-3v-82.905a52.776 52.776 0 0 1 17.618-39.379zm18.483 98.653l72.1-45.39 1.598 2.539-72.1 45.39a29.98 29.98 0 0 0-13.713 21.296l-2.972-.409a32.981 32.981 0 0 1 15.087-23.426z" fill="url(#b)"/></g><defs><linearGradient id="b" x1="712.119" y1="7.028" x2="423.578" y2="390.102" gradientUnits="userSpaceOnUse"><stop stop-color="#18ADD6"/><stop offset="1" stop-color="#3A94CB"/></linearGradient><clipPath id="a"><path fill="#fff" d="M0 0h720v270H0z"/></clipPath></defs></svg>