<svg width="374" height="210" viewBox="0 0 374 210" fill="none" xmlns="http://www.w3.org/2000/svg"><g clip-path="url(#a)"><rect width="374" height="210" rx="3" fill="url(#b)" filter="url(#c)"/><path d="M210.35 79.78L374-33.214V255L209.99 138.777c-20.399-14.455-20.213-44.792.36-58.997z" fill="url(#d)"/><path d="M284.628 94.392l.144 2.544c.016.816.192 1.48.528 1.992h-3.336c-.288-.48-.44-1.16-.456-2.04l-.072-1.872c-.048-1.04-.288-1.76-.72-2.16-.416-.415-1.088-.623-2.016-.623h-4.224v6.695h-3.24V81.841h7.752c1.904 0 3.384.431 4.44 1.296 1.056.864 1.584 2.04 1.584 3.528 0 2.047-.952 3.407-2.856 4.08.864.271 1.48.703 1.848 1.295.384.576.592 1.36.624 2.352zm-10.152-9.888v5.184h4.32c.912 0 1.616-.224 2.112-.672.512-.464.768-1.128.768-1.992 0-.816-.264-1.44-.792-1.871-.512-.433-1.248-.649-2.208-.649h-4.2zm24.217 8.448v.72h-9.264c.112 1.056.44 1.856.984 2.4.56.528 1.304.793 2.232.793 1.376 0 2.32-.593 2.832-1.776h2.904c-.32 1.264-.992 2.272-2.016 3.023-1.024.737-2.272 1.105-3.744 1.105-1.84 0-3.328-.593-4.464-1.776-1.136-1.184-1.704-2.752-1.704-4.704 0-1.953.56-3.52 1.68-4.704 1.136-1.184 2.616-1.776 4.44-1.776 1.872 0 3.36.615 4.464 1.847 1.104 1.233 1.656 2.849 1.656 4.849zm-6.144-4.343c-1.776 0-2.808.984-3.096 2.952h6.216c-.128-.913-.464-1.633-1.008-2.16-.544-.528-1.248-.792-2.112-.792zm14.664 1.248l1.2-3.313h3.144l-4.608 12.385h-3.48l-4.584-12.385h3.24l1.2 3.337c.56 1.743 1.208 3.847 1.944 6.311a457.34 457.34 0 0 1 1.944-6.335zm16.699 3.096v.72h-9.264c.112 1.055.44 1.855.984 2.4.56.528 1.304.792 2.232.792 1.376 0 2.32-.593 2.832-1.776h2.904c-.32 1.264-.992 2.272-2.016 3.023-1.024.737-2.272 1.105-3.744 1.105-1.84 0-3.328-.593-4.464-1.776-1.136-1.184-1.704-2.752-1.704-4.704 0-1.953.56-3.52 1.68-4.704 1.136-1.184 2.616-1.776 4.44-1.776 1.872 0 3.36.615 4.464 1.847 1.104 1.233 1.656 2.849 1.656 4.849zm-6.144-4.344c-1.776 0-2.808.984-3.096 2.952h6.216c-.128-.913-.464-1.633-1.008-2.16-.544-.528-1.248-.792-2.112-.792zm14.721-2.256c.272 0 .52.016.744.047v2.784h-.768c-1.152 0-2.04.297-2.664.889-.608.576-.912 1.431-.912 2.568v6.287h-3.024V86.546h2.928v2.207c.688-1.6 1.92-2.4 3.696-2.4zm6.99 12.912c-3.616 0-5.504-1.424-5.664-4.272h2.952c.08.767.328 1.312.744 1.632.432.32 1.104.48 2.016.48 1.632 0 2.448-.496 2.448-1.489 0-.448-.176-.791-.528-1.031-.352-.24-.984-.44-1.896-.6l-1.416-.24c-2.704-.449-4.056-1.697-4.056-3.745 0-1.168.448-2.08 1.344-2.736.896-.671 2.16-1.007 3.792-1.007 3.536 0 5.36 1.4 5.472 4.2h-2.856c-.032-.736-.264-1.256-.696-1.56-.432-.32-1.072-.48-1.92-.48-1.44 0-2.16.48-2.16 1.44 0 .415.16.743.48.984.32.224.848.4 1.584.528l1.56.24c1.504.272 2.592.704 3.264 1.296.688.591 1.032 1.415 1.032 2.471 0 1.248-.48 2.209-1.44 2.88-.96.672-2.312 1.008-4.056 1.008zm18.792-6.313v.72h-9.264c.112 1.056.44 1.856.984 2.4.56.528 1.304.793 2.232.793 1.376 0 2.32-.593 2.832-1.776h2.904c-.32 1.264-.992 2.272-2.016 3.023-1.024.737-2.272 1.105-3.744 1.105-1.84 0-3.328-.593-4.464-1.776-1.136-1.184-1.704-2.752-1.704-4.704 0-1.953.56-3.52 1.68-4.704 1.136-1.184 2.616-1.776 4.44-1.776 1.872 0 3.36.615 4.464 1.847 1.104 1.233 1.656 2.849 1.656 4.849zm-6.144-4.343c-1.776 0-2.808.984-3.096 2.952h6.216c-.128-.913-.464-1.633-1.008-2.16-.544-.528-1.248-.792-2.112-.792zm-43.844 41.319h-3.432l-1.344-3.768h-7.488l-1.32 3.768h-3.336l6.504-17.088h3.792l6.624 17.088zm-10.632-8.376l-.648 1.848h5.52l-.672-1.848c-.56-1.424-1.264-3.376-2.112-5.856a193.155 193.155 0 0 1-2.088 5.856zm18.011 8.76c-2.32 0-4.12-.52-5.4-1.56-1.264-1.04-1.904-2.528-1.92-4.464h3.192c.016 1.216.376 2.088 1.08 2.616.72.528 1.768.792 3.144.792 1.12 0 1.976-.208 2.568-.624.592-.432.888-1.048.888-1.848 0-.672-.256-1.184-.768-1.536-.496-.352-1.408-.664-2.736-.936l-1.44-.288c-3.664-.688-5.496-2.416-5.496-5.184 0-1.472.56-2.64 1.68-3.504 1.12-.88 2.672-1.32 4.656-1.32 2.256 0 3.96.48 5.112 1.44 1.168.96 1.784 2.304 1.848 4.032h-3.144c-.064-.976-.392-1.696-.984-2.16-.576-.464-1.504-.696-2.784-.696-.992 0-1.752.184-2.28.552-.528.368-.792.888-.792 1.56 0 .688.24 1.216.72 1.584.496.368 1.368.68 2.616.936l1.488.288c2 .4 3.44 1 4.32 1.8.896.784 1.344 1.872 1.344 3.264 0 1.664-.608 2.96-1.824 3.888-1.216.912-2.912 1.368-5.088 1.368zm12.017-.384h-3.24V112.84h3.24v17.088zm14.111-12.624v-4.464h3.12v17.088h-3.6l-4.752-7.608c-1.296-2.032-2.312-3.744-3.048-5.136.064 1.792.096 4.552.096 8.28v4.464h-3.12V112.84h3.6l4.776 7.608c1.424 2.304 2.432 4.016 3.024 5.136a312.884 312.884 0 0 1-.096-8.28zm12.282 2.784h4.128v2.592h-4.128v4.128h-2.808v-4.128h-4.152v-2.592h4.152v-4.152h2.808v4.152z" fill="#fff"/><path opacity=".3" d="M101.126 248.247l.065.109 81.676-56.178c6.525-4.487 10.326-11.268 11.096-20.161v-.002l6.073-69.028-98.91 145.26zm0 0l-1.236.85m1.236-.85l-1.236.85m0 0c-14.076 9.682-33.751 4.221-43.941-12.787-10.19-17.007-6.633-38.447 7.443-48.129L167.4 116.642l9.994-6.874c7.358-5.061 11.636-12.928 12.455-22.532l.001-.003 6.138-68.915v-.004M99.89 249.097l96.099-230.783m0 0c.77-8.89 4.569-15.672 11.189-20.225m-11.189 20.225l11.189-20.225m0 0l82.819-56.965M207.178-1.91l82.819-56.965m0 0c14.076-9.681 33.751-4.22 43.941 12.787m-43.941-12.787l43.941 12.787m0 0c10.19 17.008 6.633 38.448-7.443 48.13m7.443-48.13l-7.443 48.13m0 0L272.732 39.02m53.763-36.978L272.732 39.02m0 0l-32.48 22.34m32.48-22.34l-32.48 22.34m0 0l-27.668 19.03m27.668-19.03l-27.668 19.03m0 0c-7.35 5.055-11.699 12.808-12.547 22.594l12.547-22.594zM185.436-73.84v.01l-6.139 68.92v.004c-.77 8.886-4.659 15.734-11.189 20.225-24.612 16.929-74.394 51.073-124.179 85.219l-.01.007c-49.787 34.148-99.576 68.297-124.191 85.228-14.076 9.682-33.751 4.221-43.941-12.786-10.191-17.008-6.633-38.448 7.442-48.13l.092-.063h.001L162.793-67.045h.001c7.357-5.061 11.635-12.928 12.455-22.53v-.006l6.138-68.906v-.003c.834-8.799 4.67-15.751 11.189-20.235l18.137-12.475c14.076-9.681 33.751-4.221 43.941 12.787 10.191 17.008 6.634 38.448-7.442 48.129l-49.229 33.86c-7.36 5.063-11.632 12.929-12.547 22.584zm25.023 268.753v-.004c.77-8.889 4.569-15.672 11.189-20.225l.289-.198.288-.199.288-.198.289-.199.288-.198.289-.198.288-.199.289-.198.288-.198.288-.199.289-.198.288-.199.289-.198.288-.198.289-.199.288-.198.288-.199.289-.198.288-.198.289-.199.288-.198.288-.198.289-.199.288-.198.289-.198.288-.199.288-.198.289-.199.288-.198.289-.198.288-.199.288-.198.289-.198.288-.199.289-.198.288-.198.288-.199.289-.198.288-.198.288-.199.289-.198.288-.199.289-.198.288-.198.288-.199.289-.198.288-.198.288-.199.289-.198.288-.198.288-.199.289-.198.288-.198.289-.199.288-.198.288-.198.289-.199.288-.198.288-.198.289-.199.288-.198.288-.198.289-.198.288-.199.288-.198.289-.198.288-.199.288-.198.289-.198.288-.199.288-.198.289-.198.288-.199.288-.198.288-.198.289-.199.288-.198.288-.198.289-.198.288-.199.288-.198.289-.198.288-.199.288-.198.289-.198.288-.199.288-.198.288-.198.289-.198.288-.199.288-.198.289-.198.288-.199.288-.198.289-.198.288-.198.288-.199.288-.198.289-.198.288-.199.288-.198.288-.198.289-.198.288-.199.288-.198.289-.198.288-.199.288-.198.288-.198.289-.198.288-.199.288-.198.288-.198.289-.198.288-.199.288-.198.289-.198.288-.199.288-.198.288-.198.289-.198.288-.199.288-.198.288-.198.289-.198.288-.199.288-.198.288-.198.289-.198.288-.199.288-.198.288-.198.289-.198.288-.199.288-.198.288-.198.288-.198.289-.199.288-.198.288-.198.288-.198.289-.199.288-.198.288-.198.288-.198.289-.199.288-.198.288-.198.288-.199.288-.198.289-.198.288-.198.288-.198.288-.199.289-.198.288-.198.288-.198.288-.199.288-.198.289-.198.288-.198.288-.199.288-.198.289-.198.288-.198.288-.199.288-.198.288-.198.289-.198.288-.199.288-.198.288-.198.288-.198.289-.198.288-.199.288-.198.288-.198.288-.198.289-.199.288-.198.288-.198.288-.198.288-.199.289-.198.288-.198.288-.198.288-.198.288-.199.289-.198.288-.198.288-.198.288-.199.288-.198.289-.198.288-.198.288-.198.288-.199.288-.198.289-.198.288-.198.288-.199.288-.198.288-.198.289-.198.288-.198.288-.199.288-.198.288-.198.289-.198.288-.199.288-.198.288-.198.288-.198.288-.198.289-.199.288-.198.288-.198.288-.198.288-.199.289-.198.288-.198.288-.198.288-.198.288-.199.289-.198.288-.198.288-.198.288-.199.288-.198.288-.198.289-.198.288-.198.288-.199.288-.198.288-.198.289-.198.288-.198.288-.199.288-.198.288-.198.288-.198.289-.198.288-.199.288-.198.288-.198.288-.198.289-.199.288-.198.288-.198.288-.198.288-.198.288-.199.289-.198.288-.198.288-.198.288-.198.288-.199.288-.198.289-.198.288-.198.288-.199.288-.198.288-.198.289-.198.288-.198.288-.199.288-.198.288-.198.288-.198.289-.198.288-.199.288-.198.288-.198.288-.198.289-.199.288-.198.288-.198.288-.198.288-.198.288-.199.289-.198.288-.198.288-.198.288-.198.288-.199.289-.198.288-.198.288-.198.288-.199.288-.198.288-.198.289-.198.288-.198.288-.199.288-.198.288-.198.289-.198.288-.199.288-.198.288-.198.288-.198.289-.198.288-.199.288-.198.288-.198.288-.198.288-.199.289-.198.288-.198.288-.198.288-.198.288-.199.289-.198.288-.198.288-.198.288-.199.288-.198.289-.198.288-.198.288-.198.288-.199.288-.198.289-.198.288-.198.288-.199.288-.198.288-.198.289-.198.288-.198.288-.199.288-.198.288-.198.289-.198.288-.199.288-.198.288-.198.288-.198.289-.199.288-.198.288-.198.288-.198.288-.198.289-.199.288-.198.288-.198.288-.198.288-.199.289-.198.288-.198.288-.198.288-.199.289-.198.288-.198.288-.198.288-.199.288-.198.289-.198.288-.198.288-.199.288-.198.289-.198.288-.198.288-.198.288-.199.288-.198.289-.198.288-.198.288-.199.288-.198.289-.198.288-.198.288-.199.288-.198.289-.198.288-.198.288-.199.288-.198.289-.198.288-.199.288-.198.288-.198.288-.198.289-.198.288-.199.288-.198.288-.198.289-.199.288-.198.288-.198.288-.198.289-.199.288-.198.288-.198.288-.198.289-.199.288-.198.288-.198.289-.198.288-.199.288-.198.288-.198.289-.199.288-.198.288-.198.288-.198.289-.199.288-.198.288-.198.288-.198.289-.199.288-.198.288-.198.289-.199.288-.198.288-.198.288-.199.289-.198.288-.198.288-.198.289-.199.288-.198.288-.198.288-.199.289-.198.288-.198.288-.198.289-.199.288-.198.288-.198.289-.199.288-.198.288-.198.288-.198.289-.199.288-.198.288-.198.289-.199.288-.198.288-.198.289-.199.288-.198.288-.198.289-.199.288-.198.288-.198.289-.199.288-.198.288-.198.289-.198.288-.199.288-.198.289-.198.288-.199.288-.198.289-.198.288-.199.288-.198.289-.198.288-.199.288-.198.289-.198.288-.199.288-.198.289-.198.288-.199.289-.198.288-.198.288-.199.289-.198.288-.198.288-.199.289-.198.288-.199.288-.198.289-.198.288-.199.289-.198.288-.198.288-.199.289-.198.288-.198.289-.199.288-.198.288-.198.289-.199.288-.198.289-.199.288-.198.288-.198.289-.199.288-.198.289-.198.288-.199.288-.198.289-.198.288-.199.289-.198.288-.199.288-.198.289-.198.288-.199.289-.198.288-.198.289-.199.288-.198.289-.199.288-.198.288-.199.289-.198.288-.198.289-.199.288-.198c14.076-9.682 33.751-4.22 43.941 12.787 10.191 17.007 6.634 38.447-7.442 48.129l-.093.064-178.686 122.902c-7.346 5.053-11.702 12.806-12.456 22.539v.009l-6.136 68.893-.001.006c-.835 8.797-4.671 15.749-11.189 20.232l-18.137 12.475c-14.076 9.682-33.751 4.221-43.941-12.786-10.191-17.008-6.634-38.448 7.442-48.13l49.322-33.924c7.358-5.061 11.636-12.929 12.455-22.533v-.002l6.138-68.915z" stroke="url(#e)" stroke-width="3"/></g><defs><filter id="c" x="-15" y="-11" width="404" height="240" filterUnits="userSpaceOnUse" color-interpolation-filters="sRGB"><feFlood flood-opacity="0" result="BackgroundImageFix"/><feColorMatrix in="SourceAlpha" values="0 0 0 0 0 0 0 0 0 0 0 0 0 0 0 0 0 0 127 0"/><feOffset dy="4"/><feGaussianBlur stdDeviation="7.5"/><feColorMatrix values="0 0 0 0 0.390675 0 0 0 0 0.402439 0 0 0 0 0.508319 0 0 0 0.15 0"/><feBlend in2="BackgroundImageFix" result="effect1_dropShadow"/><feBlend in="SourceGraphic" in2="effect1_dropShadow" result="shape"/></filter><linearGradient id="b" x1="187" x2="187" y2="210" gradientUnits="userSpaceOnUse"><stop stop-color="#003177"/><stop offset="1" stop-color="#096FC4"/></linearGradient><linearGradient id="d" x1="271" y1="-33.214" x2="271" y2="255" gradientUnits="userSpaceOnUse"><stop stop-color="#0552BB"/><stop offset="1" stop-color="#C7DFFF" stop-opacity="0"/></linearGradient><linearGradient id="e" x1="84.149" y1="28.029" x2="415.035" y2="-22.846" gradientUnits="userSpaceOnUse"><stop stop-color="#178BD3"/><stop offset="1" stop-color="#fff" stop-opacity=".26"/></linearGradient><clipPath id="a"><rect width="374" height="210" rx="3" fill="#fff"/></clipPath></defs></svg>