<svg width="720" height="270" viewBox="0 0 720 270" fill="none" xmlns="http://www.w3.org/2000/svg">
<g clip-path="url(#clip0)">
<path d="M720 0H0V270H720V0Z" fill="url(#paint0_linear)"/>
<path fill-rule="evenodd" clip-rule="evenodd" d="M562.041 -2.65894L265.605 243.831L266.547 244.964L265.605 243.831C259.136 249.21 254.048 256.068 250.768 263.828L248.618 268.914L251.381 270.082L253.531 264.996L252.388 264.513L253.531 264.996C256.625 257.677 261.423 251.21 267.523 246.138L563.959 -0.352206L562.041 -2.65894ZM614.307 63.162L689.512 -2.63449L691.487 -0.376647L616.282 65.4198C605.047 75.2493 598.821 89.6379 599.335 104.591L601.145 157.255C601.7 173.413 594.832 188.934 582.513 199.356L496.469 272.149L494.531 269.859L580.575 197.066C592.191 187.239 598.67 172.6 598.147 157.358L596.337 104.694C595.792 88.8425 602.392 73.5863 614.307 63.162ZM573.001 0.0597326L575.485 62.3942C576.106 77.9784 569.402 92.9497 557.381 102.828L353.547 270.347L355.452 272.664L559.286 105.146C572.034 94.6694 579.141 78.7952 578.483 62.2747L575.999 -0.0597218L573.001 0.0597326ZM630.618 148.72L721.501 67.6354L723.498 69.8739L632.616 150.958C622.048 160.388 616 173.904 616 188.099V271.004H613V188.099C613 173.051 619.411 158.72 630.618 148.72ZM649.101 247.373L721.201 201.983L722.799 204.522L650.699 249.912C643.215 254.624 638.194 262.42 636.986 271.208L634.014 270.799C635.342 261.137 640.864 252.559 649.101 247.373Z" fill="url(#paint1_linear)"/>
</g>
<defs>
<linearGradient id="paint0_linear" x1="52.8788" y1="356.744" x2="616.074" y2="-46.8809" gradientUnits="userSpaceOnUse">
<stop stop-color="#215AAA"/>
<stop offset="1" stop-color="#01D3EE"/>
</linearGradient>
<linearGradient id="paint1_linear" x1="712.119" y1="7.02836" x2="423.578" y2="390.102" gradientUnits="userSpaceOnUse">
<stop stop-color="#18ADD6"/>
<stop offset="1" stop-color="#3A94CB"/>
</linearGradient>
<clipPath id="clip0">
<rect width="720" height="270" fill="white"/>
</clipPath>
</defs>
</svg>
