<svg width="720" height="270" viewBox="0 0 720 270" fill="none" xmlns="http://www.w3.org/2000/svg">
<g clip-path="url(#clip0)">
<path d="M720 0H0V270H720V0Z" fill="url(#paint0_linear)"/>
<path d="M398.581 337.506C381.392 349.41 356.031 347.424 341.811 333.06C327.592 318.694 329.989 297.484 347.178 285.579L467.182 202.47L478.712 194.484C486.72 188.939 491.01 181.456 491.189 172.91L492.849 108.596C493.046 99.8879 497.318 92.5683 505.432 86.9488L861.854 -164.293C879.043 -176.197 904.405 -174.21 918.624 -159.846C932.844 -145.481 930.446 -124.27 913.257 -112.365L590.359 115.658L552.885 141.611L520.962 163.719C512.955 169.265 508.576 176.659 508.379 185.367L506.807 249.77C506.61 258.479 502.338 265.798 494.331 271.344L398.67 337.595L398.581 337.506ZM472.927 -72.9615L754.721 -272.518C771.91 -284.422 797.271 -282.436 811.491 -268.072C825.71 -253.707 823.313 -232.495 806.124 -220.591L488.457 3.80954C480.45 9.35509 476.16 16.8379 475.874 25.4574L474.213 89.7709C474.016 98.4796 469.638 105.873 461.631 111.419C404.832 150.755 348.14 190.018 291.341 229.354C274.152 241.259 248.791 239.272 234.571 224.907C220.351 210.543 222.749 189.331 239.938 177.427L240.045 177.353L446.207 34.5738C454.215 29.0283 458.505 21.5455 458.683 12.9999L460.344 -51.3137C460.629 -59.9331 464.919 -67.4159 472.927 -72.9615ZM526.464 431.06L505.539 445.553C488.349 457.457 462.988 455.471 448.769 441.107C434.549 426.741 436.946 405.531 454.136 393.626L511.041 354.216C519.048 348.67 523.338 341.188 523.517 332.642L525.178 268.329C525.375 259.619 529.647 252.3 537.761 246.681C594.559 207.344 1056.96 -117.397 1113.76 -156.734C1130.95 -168.638 1156.31 -166.651 1170.53 -152.287C1184.75 -137.922 1182.35 -116.711 1165.16 -104.806L1165.05 -104.733L553.184 323.525C545.177 329.071 540.798 336.465 540.708 345.099L539.047 409.413C538.762 418.032 534.472 425.515 526.464 431.06Z" fill="url(#paint1_linear)"/>
</g>
<defs>
<linearGradient id="paint0_linear" x1="5.21674e-06" y1="282.96" x2="563.195" y2="-120.665" gradientUnits="userSpaceOnUse">
<stop stop-color="#288AE8"/>
<stop offset="1" stop-color="#00D2ED"/>
</linearGradient>
<linearGradient id="paint1_linear" x1="296.5" y1="190.204" x2="686.131" y2="57.8628" gradientUnits="userSpaceOnUse">
<stop stop-color="#1AA4E9"/>
<stop offset="1" stop-color="#01BEE6"/>
</linearGradient>
<clipPath id="clip0">
<rect width="720" height="270" fill="white"/>
</clipPath>
</defs>
</svg>
