<svg width="1440" height="360" viewBox="0 0 1440 360" fill="none" xmlns="http://www.w3.org/2000/svg">
<g clip-path="url(#clip0)">
<rect width="1440" height="360" fill="url(#paint0_linear)"/>
<path d="M799.801 613.092C772.687 635.605 732.683 631.848 710.253 604.683C687.822 577.518 691.604 537.405 718.719 514.892L908.011 357.723L926.2 342.622C938.83 332.134 945.598 317.984 945.879 301.823L948.499 180.199C948.81 163.729 955.548 149.887 968.347 139.26L1530.57 -335.866C1557.68 -358.378 1597.68 -354.622 1620.11 -327.456C1642.54 -300.291 1638.76 -260.179 1611.65 -237.666L1102.31 193.553L1043.2 242.634L992.844 284.443C980.213 294.93 973.307 308.912 972.996 325.381L970.516 447.174C970.205 463.644 963.467 477.486 950.836 487.973L799.941 613.261L799.801 613.092ZM917.073 -163.149L1361.57 -540.533C1388.69 -563.046 1428.69 -559.289 1451.12 -532.124C1473.55 -504.959 1469.77 -464.846 1442.66 -442.333L941.57 -17.9658C928.94 -7.47856 922.173 6.67226 921.722 22.9727L919.103 144.597C918.792 161.066 911.885 175.048 899.255 185.535C809.661 259.925 720.235 334.175 630.641 408.565C603.527 431.077 563.522 427.321 541.092 400.155C518.662 372.99 522.444 332.878 549.558 310.365L549.726 310.225L874.926 40.2129C887.557 29.7256 894.324 15.5748 894.606 -0.585845L897.225 -122.21C897.675 -138.511 904.443 -152.661 917.073 -163.149ZM1001.52 790.016L968.515 817.422C941.401 839.935 901.396 836.178 878.966 809.013C856.536 781.848 860.318 741.735 887.432 719.222L977.195 644.693C989.826 634.206 996.593 620.055 996.875 603.894L999.494 482.27C999.805 465.801 1006.54 451.958 1019.34 441.331C1108.94 366.942 1838.32 -247.182 1927.92 -321.571C1955.03 -344.084 1995.04 -340.327 2017.47 -313.162C2039.9 -285.997 2036.11 -245.884 2009 -223.371L2008.83 -223.232L1043.67 586.654C1031.04 597.141 1024.13 611.123 1023.99 627.453L1021.37 749.077C1020.92 765.377 1014.15 779.528 1001.52 790.016Z" fill="url(#paint1_linear)"/>
<path fill-rule="evenodd" clip-rule="evenodd" d="M-1.71365 173.644L290.786 -1.85627L288.214 -6.14374L-4.28613 169.356L-1.71365 173.644ZM387.499 103.816L556.281 3.14709L553.719 -1.1471L384.938 99.522C366.6 110.46 354.987 129.881 354.03 151.212L349.958 241.957C349.085 261.4 338.6 279.137 321.985 289.274L211.198 356.866L213.802 361.134L324.589 293.542C342.624 282.539 354.006 263.286 354.953 242.181L359.025 151.436C359.906 131.785 370.605 113.893 387.499 103.816ZM314 1.0383L312.521 97.5051C312.184 119.526 300.461 139.799 281.544 151.076L1.28022 318.147L-1.28001 313.853L278.984 146.781C296.411 136.392 307.211 117.715 307.522 97.4285L309 0.961685L314 1.0383ZM692.634 15.8609L690.47 2.11126L685.531 2.88873L687.695 16.6384C691.373 40.0055 680.617 63.288 660.44 75.6343L404.857 232.024C385.999 243.563 374.5 264.08 374.5 286.188V361H379.5V286.188C379.5 265.82 390.094 246.919 407.467 236.288L663.049 79.8992C684.951 66.4977 696.627 41.2252 692.634 15.8609Z" fill="url(#paint2_linear)"/>
</g>
<defs>
<linearGradient id="paint0_linear" x1="194.5" y1="159.944" x2="1415.01" y2="118.06" gradientUnits="userSpaceOnUse">
<stop offset="0.0323441" stop-color="#096FC4"/>
<stop offset="1" stop-color="#0581CF"/>
</linearGradient>
<linearGradient id="paint1_linear" x1="707.5" y1="356.99" x2="1365.17" y2="44.5389" gradientUnits="userSpaceOnUse">
<stop offset="0.160252" stop-color="#0768BC"/>
<stop offset="1" stop-color="#037BC9"/>
</linearGradient>
<linearGradient id="paint2_linear" x1="582.389" y1="21.556" x2="350.434" y2="517.531" gradientUnits="userSpaceOnUse">
<stop offset="0.0677866" stop-color="#0B76CA"/>
<stop offset="1" stop-color="#157CCD"/>
</linearGradient>
<clipPath id="clip0">
<rect width="1440" height="360" fill="white"/>
</clipPath>
</defs>
</svg>
