<svg width="490" height="269" viewBox="0 0 490 269" fill="none" xmlns="http://www.w3.org/2000/svg"><g style="mix-blend-mode:multiply" opacity=".2"><path d="M173.581 327.396c-17.189 11.86-42.55 9.881-56.77-4.43-14.219-14.312-11.822-35.444 5.367-47.305l120.004-82.801 11.53-7.956c8.008-5.525 12.298-12.98 12.477-21.494l1.66-64.075c.197-8.677 4.469-15.97 12.583-21.568l356.422-250.311c17.189-11.86 42.551-9.881 56.77 4.431 14.22 14.311 11.822 35.444-5.367 47.304L365.359 106.37l-37.474 25.857-31.923 22.027c-8.007 5.525-12.386 12.891-12.583 21.567l-1.572 64.165c-.197 8.676-4.469 15.968-12.476 21.494l-95.661 66.005-.089-.089zm74.346-408.947L529.721-280.37c17.189-11.86 42.55-9.881 56.77 4.431 14.219 14.311 11.822 35.444-5.367 47.304L263.457-5.064C255.45.46 251.159 7.916 250.874 16.503l-1.661 64.076c-.197 8.676-4.575 16.042-12.582 21.567L66.341 219.645c-17.19 11.86-42.55 9.881-56.77-4.43-14.22-14.312-11.822-35.444 5.367-47.305l.107-.074 206.162-142.25c8.008-5.525 12.298-12.98 12.476-21.494l1.661-64.075c.285-8.588 4.575-16.043 12.583-21.568zm53.537 502.156l-20.925 14.438c-17.19 11.861-42.551 9.881-56.77-4.43-14.22-14.312-11.823-35.444 5.367-47.304l56.905-39.265c8.007-5.525 12.297-12.98 12.476-21.494l1.661-64.075c.197-8.677 4.469-15.969 12.583-21.568 56.798-39.191 519.198-362.729 575.996-401.92 17.189-11.86 42.551-9.881 56.77 4.43 14.22 14.312 11.822 35.444-5.367 47.305l-.106.073-611.87 426.673c-8.007 5.525-12.386 12.891-12.476 21.494l-1.661 64.075c-.285 8.587-4.575 16.043-12.583 21.568z" fill="#2C71D3"/><path d="M173.581 327.396c-17.189 11.86-42.55 9.881-56.77-4.43-14.219-14.312-11.822-35.444 5.367-47.305l120.004-82.801 11.53-7.956c8.008-5.525 12.298-12.98 12.477-21.494l1.66-64.075c.197-8.677 4.469-15.97 12.583-21.568l356.422-250.311c17.189-11.86 42.551-9.881 56.77 4.431 14.22 14.311 11.822 35.444-5.367 47.304L365.359 106.37l-37.474 25.857-31.923 22.027c-8.007 5.525-12.386 12.891-12.583 21.567l-1.572 64.165c-.197 8.676-4.469 15.968-12.476 21.494l-95.661 66.005-.089-.089zm74.346-408.947L529.721-280.37c17.189-11.86 42.55-9.881 56.77 4.431 14.219 14.311 11.822 35.444-5.367 47.304L263.457-5.064C255.45.46 251.159 7.916 250.874 16.503l-1.661 64.076c-.197 8.676-4.575 16.042-12.582 21.567L66.341 219.645c-17.19 11.86-42.55 9.881-56.77-4.43-14.22-14.312-11.822-35.444 5.367-47.305l.107-.074 206.162-142.25c8.008-5.525 12.298-12.98 12.476-21.494l1.661-64.075c.285-8.588 4.575-16.043 12.583-21.568zm53.537 502.156l-20.925 14.438c-17.19 11.861-42.551 9.881-56.77-4.43-14.22-14.312-11.823-35.444 5.367-47.304l56.905-39.265c8.007-5.525 12.297-12.98 12.476-21.494l1.661-64.075c.197-8.677 4.469-15.969 12.583-21.568 56.798-39.191 519.198-362.729 575.996-401.92 17.189-11.86 42.551-9.881 56.77 4.43 14.22 14.312 11.822 35.444-5.367 47.305l-.106.073-611.87 426.673c-8.007 5.525-12.386 12.891-12.476 21.494l-1.661 64.075c-.285 8.587-4.575 16.043-12.583 21.568z" fill="url(#a)"/></g><defs><linearGradient id="a" x1="91" y1="108.14" x2="448.188" y2="208.786" gradientUnits="userSpaceOnUse"><stop stop-color="#F8F8FA"/><stop offset="1" stop-color="#fff" stop-opacity="0"/></linearGradient></defs></svg>