<svg width="374" height="210" viewBox="0 0 374 210" fill="none" xmlns="http://www.w3.org/2000/svg"><g clip-path="url(#a)"><rect width="374" height="210" rx="3" fill="url(#c)" filter="url(#b)"/><path d="M210.35 79.78L374-33.214V255L209.99 138.777c-20.399-14.455-20.213-44.792.36-58.997z" fill="url(#d)"/><path d="M273.876 89.977l2.856-8.136h4.704v17.088h-3.096V93.72c0-3.2.032-6.023.096-8.471a69.731 69.731 0 0 1-1.296 3.936l-3.456 9.743h-2.664l-3.48-9.743c-.608-1.776-1.032-3.073-1.272-3.889.064 2.432.096 5.24.096 8.424v5.209h-3.12V81.84h4.704l2.952 8.303c.192.56.68 2.105 1.464 4.632a93.063 93.063 0 0 1 1.512-4.8zm21.172 8.951h-3.024c-.144-.255-.256-.76-.336-1.511-.832 1.2-2.16 1.8-3.984 1.8-1.36 0-2.448-.329-3.264-.984-.8-.657-1.2-1.569-1.2-2.737 0-2.255 1.584-3.543 4.752-3.864l1.872-.168c.624-.08 1.072-.224 1.344-.431.272-.225.408-.552.408-.984 0-.529-.176-.913-.528-1.153-.336-.255-.912-.383-1.728-.383-.88 0-1.512.151-1.896.456-.384.288-.608.791-.672 1.512h-2.976c.176-2.816 2.032-4.224 5.568-4.224 3.44 0 5.16 1.24 5.16 3.72v6.6c0 1.088.168 1.871.504 2.352zm-6.624-1.871c.944 0 1.712-.257 2.304-.769.592-.528.888-1.28.888-2.255v-1.129c-.288.257-.76.425-1.416.505l-1.632.191c-.8.097-1.376.288-1.728.577-.336.271-.504.671-.504 1.2 0 .528.176.944.528 1.248.368.287.888.431 1.56.431zm15.217-10.8c1.344 0 2.4.391 3.168 1.175.784.769 1.176 1.864 1.176 3.288v8.209h-3.024v-7.704c0-1.569-.776-2.352-2.328-2.352-.768 0-1.424.28-1.968.84-.528.544-.792 1.303-.792 2.28v6.936h-3.024V86.543h2.928v1.776c.944-1.375 2.232-2.063 3.864-2.063zm17.938 12.671h-3.024c-.144-.255-.256-.76-.336-1.511-.832 1.2-2.16 1.8-3.984 1.8-1.36 0-2.448-.329-3.264-.984-.8-.657-1.2-1.569-1.2-2.737 0-2.255 1.584-3.543 4.752-3.864l1.872-.168c.624-.08 1.072-.224 1.344-.431.272-.225.408-.552.408-.984 0-.529-.176-.913-.528-1.153-.336-.255-.912-.383-1.728-.383-.88 0-1.512.151-1.896.456-.384.288-.608.791-.672 1.512h-2.976c.176-2.816 2.032-4.224 5.568-4.224 3.44 0 5.16 1.24 5.16 3.72v6.6c0 1.088.168 1.871.504 2.352zm-6.624-1.871c.944 0 1.712-.257 2.304-.769.592-.528.888-1.28.888-2.255v-1.129c-.288.257-.76.425-1.416.505l-1.632.191c-.8.097-1.376.288-1.728.577-.336.271-.504.671-.504 1.2 0 .528.176.944.528 1.248.368.287.888.431 1.56.431zm17.119-8.808v-1.704h2.928V98.52c0 1.68-.536 3-1.608 3.96-1.056.96-2.56 1.44-4.512 1.44-1.728 0-3.088-.384-4.08-1.152-.976-.768-1.512-1.824-1.608-3.168h2.976c.144 1.328 1.064 1.992 2.76 1.992.992 0 1.744-.256 2.256-.768.528-.512.792-1.255.792-2.231v-1.56c-.896 1.231-2.16 1.847-3.792 1.847-1.68 0-3.032-.584-4.056-1.751-1.024-1.136-1.536-2.657-1.536-4.56 0-1.92.512-3.448 1.536-4.585 1.008-1.151 2.352-1.727 4.032-1.727 1.744 0 3.048.663 3.912 1.992zm-3.216 8.136c1.008 0 1.792-.337 2.352-1.009.56-.672.84-1.608.84-2.808 0-1.2-.28-2.135-.84-2.808-.56-.672-1.344-1.008-2.352-1.008-.976 0-1.752.345-2.328 1.032-.56.672-.84 1.608-.84 2.808 0 1.184.28 2.112.84 2.784.576.672 1.352 1.008 2.328 1.008zm20.273-3.433v.72h-9.264c.112 1.056.44 1.856.984 2.4.56.528 1.304.793 2.232.793 1.376 0 2.32-.593 2.832-1.776h2.904c-.32 1.264-.992 2.272-2.016 3.023-1.024.737-2.272 1.105-3.744 1.105-1.84 0-3.328-.593-4.464-1.776-1.136-1.184-1.704-2.752-1.704-4.704 0-1.953.56-3.52 1.68-4.704 1.136-1.184 2.616-1.776 4.44-1.776 1.872 0 3.36.615 4.464 1.847 1.104 1.233 1.656 2.849 1.656 4.849zm-6.144-4.343c-1.776 0-2.808.984-3.096 2.952h6.216c-.128-.913-.464-1.633-1.008-2.16-.544-.528-1.248-.792-2.112-.792zm14.72-2.256c.272 0 .52.016.744.047v2.784h-.768c-1.152 0-2.04.297-2.664.889-.608.576-.912 1.431-.912 2.568v6.287h-3.024V86.546h2.928v2.207c.688-1.6 1.92-2.4 3.696-2.4zm-68.574 34.623l2.856-8.136h4.704v17.088h-3.096v-5.208c0-3.2.032-6.024.096-8.472a69.731 69.731 0 0 1-1.296 3.936l-3.456 9.744h-2.664l-3.48-9.744c-.608-1.776-1.032-3.072-1.272-3.888.064 2.432.096 5.24.096 8.424v5.208h-3.12V112.84h4.704l2.952 8.304c.192.56.68 2.104 1.464 4.632a93.063 93.063 0 0 1 1.512-4.8zm22.202 2.76c0 1.952-.576 3.52-1.728 4.704-1.152 1.184-2.672 1.776-4.56 1.776-1.888 0-3.408-.592-4.56-1.776-1.168-1.168-1.752-2.736-1.752-4.704 0-1.968.584-3.536 1.752-4.704 1.152-1.184 2.672-1.776 4.56-1.776 1.888 0 3.408.584 4.56 1.752 1.152 1.168 1.728 2.744 1.728 4.728zm-8.664 2.952c.576.688 1.368 1.032 2.376 1.032 1.008 0 1.792-.344 2.352-1.032.576-.704.864-1.688.864-2.952s-.288-2.24-.864-2.928c-.56-.704-1.344-1.056-2.352-1.056-1.008 0-1.8.344-2.376 1.032-.56.688-.84 1.672-.84 2.952s.28 2.264.84 2.952zm19.393-7.536v-6.312h3.024v17.088h-2.928V128.2c-.912 1.344-2.216 2.016-3.912 2.016-1.712 0-3.064-.592-4.056-1.776-1.008-1.184-1.512-2.752-1.512-4.704 0-1.984.504-3.56 1.512-4.728.976-1.168 2.328-1.752 4.056-1.752 1.664 0 2.936.632 3.816 1.896zm-6.288 4.68c0 1.28.28 2.248.84 2.904.56.656 1.336.984 2.328.984.992 0 1.776-.344 2.352-1.032.56-.688.84-1.672.84-2.952s-.28-2.264-.84-2.952c-.56-.688-1.344-1.032-2.352-1.032-.976 0-1.752.36-2.328 1.08-.56.72-.84 1.72-.84 3zm19.865.648v-6.936h3.024v12.384h-2.928v-1.8c-.944 1.392-2.24 2.088-3.888 2.088-1.328 0-2.384-.384-3.168-1.152-.768-.784-1.152-1.888-1.152-3.312v-8.208h3.024v7.704c0 1.568.776 2.352 2.328 2.352.768 0 1.416-.272 1.944-.816.544-.56.816-1.328.816-2.304zm8.505 5.448h-3.024V112.84h3.024v17.088zm14.125-5.976v.72h-9.264c.112 1.056.44 1.856.984 2.4.56.528 1.304.792 2.232.792 1.376 0 2.32-.592 2.832-1.776h2.904c-.32 1.264-.992 2.272-2.016 3.024-1.024.736-2.272 1.104-3.744 1.104-1.84 0-3.328-.592-4.464-1.776-1.136-1.184-1.704-2.752-1.704-4.704s.56-3.52 1.68-4.704c1.136-1.184 2.616-1.776 4.44-1.776 1.872 0 3.36.616 4.464 1.848 1.104 1.232 1.656 2.848 1.656 4.848zm-6.144-4.344c-1.776 0-2.808.984-3.096 2.952h6.216c-.128-.912-.464-1.632-1.008-2.16-.544-.528-1.248-.792-2.112-.792z" fill="#fff"/><path opacity=".3" d="M101.126 248.247l.065.109 81.676-56.178c6.525-4.487 10.326-11.268 11.096-20.161v-.002l6.073-69.028-98.91 145.26zm0 0l-1.236.85m1.236-.85l-1.236.85m0 0c-14.076 9.682-33.751 4.221-43.941-12.787-10.19-17.007-6.633-38.447 7.443-48.129L167.4 116.642l9.994-6.874c7.358-5.061 11.636-12.928 12.455-22.532l.001-.003 6.138-68.915v-.004M99.89 249.097l96.099-230.783m0 0c.77-8.89 4.569-15.672 11.189-20.225m-11.189 20.225l11.189-20.225m0 0l82.819-56.965M207.178-1.91l82.819-56.965m0 0c14.076-9.681 33.751-4.22 43.941 12.787m-43.941-12.787l43.941 12.787m0 0c10.19 17.008 6.633 38.448-7.443 48.13m7.443-48.13l-7.443 48.13m0 0l-53.763 36.978m53.763-36.978l-53.763 36.978m0 0l-32.48 22.34m32.48-22.34l-32.48 22.34m0 0L212.584 80.39m27.668-19.03l-27.668 19.03m0 0c-7.35 5.055-11.699 12.808-12.547 22.594l12.547-22.594zM185.436-73.84v.01l-6.139 68.92v.004c-.77 8.886-4.659 15.734-11.189 20.225-24.612 16.929-74.394 51.073-124.179 85.219l-.01.007c-49.787 34.148-99.576 68.297-124.191 85.228-14.076 9.682-33.751 4.221-43.941-12.786-10.191-17.008-6.633-38.448 7.442-48.13l.092-.063h.001L162.793-67.045h.001c7.357-5.061 11.635-12.928 12.455-22.53v-.006l6.138-68.906v-.003c.834-8.799 4.67-15.751 11.189-20.235l18.137-12.475c14.076-9.681 33.751-4.221 43.941 12.787 10.191 17.008 6.634 38.448-7.442 48.129l-49.229 33.86c-7.36 5.063-11.632 12.929-12.547 22.584zm25.023 268.753v-.004c.77-8.889 4.569-15.672 11.189-20.225l.289-.198.288-.199.288-.198.289-.199.288-.198.289-.198.288-.199.289-.198.288-.198.288-.199.289-.198.288-.199.289-.198.288-.198.289-.199.288-.198.288-.199.289-.198.288-.198.289-.199.288-.198.288-.198.289-.199.288-.198.289-.198.288-.199.288-.198.289-.199.288-.198.289-.198.288-.199.288-.198.289-.198.288-.199.289-.198.288-.198.288-.199.289-.198.288-.198.288-.199.289-.198.288-.199.289-.198.288-.198.288-.199.289-.198.288-.198.288-.199.289-.198.288-.198.288-.199.289-.198.288-.198.289-.199.288-.198.288-.198.289-.199.288-.198.288-.198.289-.199.288-.198.288-.198.289-.198.288-.199.288-.198.289-.198.288-.199.288-.198.289-.198.288-.199.288-.198.289-.198.288-.199.288-.198.288-.198.289-.199.288-.198.288-.198.289-.198.288-.199.288-.198.289-.198.288-.199.288-.198.289-.198.288-.199.288-.198.288-.198.289-.198.288-.199.288-.198.289-.198.288-.199.288-.198.289-.198.288-.198.288-.199.288-.198.289-.198.288-.199.288-.198.288-.198.289-.198.288-.199.288-.198.289-.198.288-.199.288-.198.288-.198.289-.198.288-.199.288-.198.288-.198.289-.198.288-.199.288-.198.289-.198.288-.199.288-.198.288-.198.289-.198.288-.199.288-.198.288-.198.289-.198.288-.199.288-.198.288-.198.289-.198.288-.199.288-.198.288-.198.289-.198.288-.199.288-.198.288-.198.288-.198.289-.199.288-.198.288-.198.288-.198.289-.199.288-.198.288-.198.288-.198.289-.199.288-.198.288-.198.288-.199.288-.198.289-.198.288-.198.288-.198.288-.199.289-.198.288-.198.288-.198.288-.199.288-.198.289-.198.288-.198.288-.199.288-.198.289-.198.288-.198.288-.199.288-.198.288-.198.289-.198.288-.199.288-.198.288-.198.288-.198.289-.198.288-.199.288-.198.288-.198.288-.198.289-.199.288-.198.288-.198.288-.198.288-.199.289-.198.288-.198.288-.198.288-.198.288-.199.289-.198.288-.198.288-.198.288-.199.288-.198.289-.198.288-.198.288-.198.288-.199.288-.198.289-.198.288-.198.288-.199.288-.198.288-.198.289-.198.288-.198.288-.199.288-.198.288-.198.289-.198.288-.199.288-.198.288-.198.288-.198.288-.198.289-.199.288-.198.288-.198.288-.198.288-.199.289-.198.288-.198.288-.198.288-.198.288-.199.289-.198.288-.198.288-.198.288-.199.288-.198.288-.198.289-.198.288-.198.288-.199.288-.198.288-.198.289-.198.288-.198.288-.199.288-.198.288-.198.288-.198.289-.198.288-.199.288-.198.288-.198.288-.198.289-.199.288-.198.288-.198.288-.198.288-.198.288-.199.289-.198.288-.198.288-.198.288-.198.288-.199.288-.198.289-.198.288-.198.288-.199.288-.198.288-.198.289-.198.288-.198.288-.199.288-.198.288-.198.288-.198.289-.198.288-.199.288-.198.288-.198.288-.198.289-.199.288-.198.288-.198.288-.198.288-.198.288-.199.289-.198.288-.198.288-.198.288-.198.288-.199.289-.198.288-.198.288-.198.288-.199.288-.198.288-.198.289-.198.288-.198.288-.199.288-.198.288-.198.289-.198.288-.199.288-.198.288-.198.288-.198.289-.198.288-.199.288-.198.288-.198.288-.198.288-.199.289-.198.288-.198.288-.198.288-.198.288-.199.289-.198.288-.198.288-.198.288-.199.288-.198.289-.198.288-.198.288-.198.288-.199.288-.198.289-.198.288-.198.288-.199.288-.198.288-.198.289-.198.288-.198.288-.199.288-.198.288-.198.289-.198.288-.199.288-.198.288-.198.288-.198.289-.199.288-.198.288-.198.288-.198.288-.198.289-.199.288-.198.288-.198.288-.198.288-.199.289-.198.288-.198.288-.198.288-.199.289-.198.288-.198.288-.198.288-.199.288-.198.289-.198.288-.198.288-.199.288-.198.289-.198.288-.198.288-.198.288-.199.288-.198.289-.198.288-.198.288-.199.288-.198.289-.198.288-.198.288-.199.288-.198.289-.198.288-.198.288-.199.288-.198.289-.198.288-.199.288-.198.288-.198.288-.198.289-.198.288-.199.288-.198.288-.198.289-.199.288-.198.288-.198.288-.198.289-.199.288-.198.288-.198.288-.198.289-.199.288-.198.288-.198.289-.198.288-.199.288-.198.288-.198.289-.199.288-.198.288-.198.288-.198.289-.199.288-.198.288-.198.288-.198.289-.199.288-.198.288-.198.289-.199.288-.198.288-.198.288-.199.289-.198.288-.198.288-.198.289-.199.288-.198.288-.198.288-.199.289-.198.288-.198.288-.198.289-.199.288-.198.288-.198.289-.199.288-.198.288-.198.288-.198.289-.199.288-.198.288-.198.289-.199.288-.198.288-.198.289-.199.288-.198.288-.198.289-.199.288-.198.288-.198.289-.199.288-.198.288-.198.289-.198.288-.199.288-.198.289-.198.288-.199.288-.198.289-.198.288-.199.288-.198.289-.198.288-.199.288-.198.289-.198.288-.199.288-.198.289-.198.288-.199.289-.198.288-.198.288-.199.289-.198.288-.198.288-.199.289-.198.288-.199.288-.198.289-.198.288-.199.289-.198.288-.198.288-.199.289-.198.288-.198.289-.199.288-.198.288-.198.289-.199.288-.198.289-.199.288-.198.288-.198.289-.199.288-.198.289-.198.288-.199.288-.198.289-.198.288-.199.289-.198.288-.199.288-.198.289-.198.288-.199.289-.198.288-.198.289-.199.288-.198.289-.199.288-.198.288-.199.289-.198.288-.198.289-.199.288-.198c14.076-9.682 33.751-4.22 43.941 12.787 10.191 17.007 6.634 38.447-7.442 48.129l-.093.064-178.686 122.902c-7.346 5.053-11.702 12.806-12.456 22.539v.009l-6.136 68.893-.001.006c-.835 8.797-4.671 15.749-11.189 20.232l-18.137 12.475c-14.076 9.682-33.751 4.221-43.941-12.786-10.191-17.008-6.634-38.448 7.442-48.13l49.322-33.924c7.358-5.061 11.636-12.929 12.455-22.533v-.002l6.138-68.915z" stroke="url(#e)" stroke-width="3"/></g><defs><filter id="b" x="-15" y="-11" width="404" height="240" filterUnits="userSpaceOnUse" color-interpolation-filters="sRGB"><feFlood flood-opacity="0" result="BackgroundImageFix"/><feColorMatrix in="SourceAlpha" values="0 0 0 0 0 0 0 0 0 0 0 0 0 0 0 0 0 0 127 0"/><feOffset dy="4"/><feGaussianBlur stdDeviation="7.5"/><feColorMatrix values="0 0 0 0 0.390675 0 0 0 0 0.402439 0 0 0 0 0.508319 0 0 0 0.15 0"/><feBlend in2="BackgroundImageFix" result="effect1_dropShadow"/><feBlend in="SourceGraphic" in2="effect1_dropShadow" result="shape"/></filter><linearGradient id="c" x1="187" x2="187" y2="210" gradientUnits="userSpaceOnUse"><stop stop-color="#003177"/><stop offset="1" stop-color="#096FC4"/></linearGradient><linearGradient id="d" x1="271" y1="-33.214" x2="271" y2="255" gradientUnits="userSpaceOnUse"><stop stop-color="#0552BB"/><stop offset="1" stop-color="#C7DFFF" stop-opacity="0"/></linearGradient><linearGradient id="e" x1="84.149" y1="28.029" x2="415.035" y2="-22.846" gradientUnits="userSpaceOnUse"><stop stop-color="#178BD3"/><stop offset="1" stop-color="#fff" stop-opacity=".26"/></linearGradient><clipPath id="a"><rect width="374" height="210" rx="3" fill="#fff"/></clipPath></defs></svg>