<svg width="374" height="210" viewBox="0 0 374 210" fill="none" xmlns="http://www.w3.org/2000/svg"><g clip-path="url(#a)"><rect width="374" height="210" rx="3" fill="url(#b)" fill-opacity=".6"/><path d="M211.064 78.227l158.342-99.344c1.998-1.254 4.594.182 4.594 2.54v270.68c0 2.453-2.784 3.87-4.766 2.425L209.002 137.821c-20.593-14.999-19.518-46.055 2.062-59.594z" fill="url(#c)" fill-opacity=".6"/><path d="M256.603 89.787l2.856-8.136h4.704V98.74h-3.096v-5.208c0-3.2.032-6.024.096-8.472a69.731 69.731 0 0 1-1.296 3.936l-3.456 9.744h-2.664l-3.48-9.744c-.608-1.776-1.032-3.072-1.272-3.888.064 2.432.096 5.24.096 8.424v5.208h-3.12V81.651h4.704l2.952 8.304c.192.56.68 2.104 1.464 4.632a93.063 93.063 0 0 1 1.512-4.8zm21.841 2.976v.72h-9.264c.112 1.056.44 1.856.984 2.4.56.528 1.304.792 2.232.792 1.376 0 2.32-.592 2.832-1.776h2.904c-.32 1.264-.992 2.272-2.016 3.024-1.024.736-2.272 1.104-3.744 1.104-1.84 0-3.328-.592-4.464-1.776-1.136-1.184-1.704-2.752-1.704-4.704s.56-3.52 1.68-4.704c1.136-1.184 2.616-1.776 4.44-1.776 1.872 0 3.36.616 4.464 1.848 1.104 1.232 1.656 2.848 1.656 4.848zM272.3 88.42c-1.776 0-2.808.984-3.096 2.952h6.216c-.128-.912-.464-1.632-1.008-2.16-.544-.528-1.248-.792-2.112-.792zm14.889-2.352c1.344 0 2.4.392 3.168 1.176.784.768 1.176 1.864 1.176 3.288v8.208h-3.024v-7.704c0-1.568-.776-2.352-2.328-2.352-.768 0-1.424.28-1.968.84-.528.544-.792 1.304-.792 2.28v6.936h-3.024V86.355h2.928v1.776c.944-1.376 2.232-2.064 3.864-2.064zm13.272 3.408l1.008-3.12h3.168l-4.776 13.392c-.512 1.408-1.152 2.376-1.92 2.904-.784.544-1.92.816-3.408.816-.496 0-.936-.024-1.32-.072v-2.376h1.152c.656 0 1.16-.184 1.512-.552.352-.368.528-.848.528-1.44s-.192-1.424-.576-2.496l-3.6-10.176h3.264l1.008 3.096c.704 2.208 1.36 4.512 1.968 6.912.48-1.808 1.144-4.104 1.992-6.888zm10.394 9.552c-1.824 0-3.304-.592-4.44-1.776-1.12-1.168-1.68-2.736-1.68-4.704 0-1.984.56-3.56 1.68-4.728 1.104-1.168 2.584-1.752 4.44-1.752 1.616 0 2.936.432 3.96 1.296 1.024.848 1.624 2 1.8 3.456h-3.024c-.144-.72-.456-1.272-.936-1.656-.48-.384-1.08-.576-1.8-.576-.944 0-1.688.344-2.232 1.032-.528.672-.792 1.648-.792 2.928s.272 2.264.816 2.952c.544.672 1.28 1.008 2.208 1.008.736 0 1.352-.2 1.848-.6.512-.416.824-1.008.936-1.776h3.024c-.16 1.488-.768 2.68-1.824 3.576-1.056.88-2.384 1.32-3.984 1.32zm14.256-12.96c1.344 0 2.4.392 3.168 1.176.784.768 1.176 1.864 1.176 3.288v8.208h-3.024v-7.704c0-1.568-.776-2.352-2.328-2.352-.768 0-1.424.28-1.968.84-.528.544-.792 1.304-.792 2.28v6.936h-3.024V81.651h3.024v6.36c.944-1.296 2.2-1.944 3.768-1.944zm17.937 12.672h-3.024c-.144-.256-.256-.76-.336-1.512-.832 1.2-2.16 1.8-3.984 1.8-1.36 0-2.448-.328-3.264-.984-.8-.656-1.2-1.568-1.2-2.736 0-2.256 1.584-3.544 4.752-3.864l1.872-.168c.624-.08 1.072-.224 1.344-.432.272-.224.408-.552.408-.984 0-.528-.176-.912-.528-1.152-.336-.256-.912-.384-1.728-.384-.88 0-1.512.152-1.896.456-.384.288-.608.792-.672 1.512h-2.976c.176-2.816 2.032-4.224 5.568-4.224 3.44 0 5.16 1.24 5.16 3.72v6.6c0 1.088.168 1.872.504 2.352zm-6.624-1.872c.944 0 1.712-.256 2.304-.768.592-.528.888-1.28.888-2.256v-1.128c-.288.256-.76.424-1.416.504l-1.632.192c-.8.096-1.376.288-1.728.576-.336.272-.504.672-.504 1.2 0 .528.176.944.528 1.248.368.288.888.432 1.56.432zm14.507-10.512v2.304h-2.448v6.696c0 .4.104.68.312.84.224.16.592.24 1.104.24h1.032v2.304c-.656.064-1.184.096-1.584.096-1.344 0-2.328-.248-2.952-.744-.608-.512-.912-1.32-.912-2.424V88.66h-1.92v-2.304h1.92v-3.6h3v3.6h2.448zM244.078 129.74h-3.24v-17.088h3.24v17.088zm9.431-12.672c1.344 0 2.4.392 3.168 1.176.784.768 1.176 1.864 1.176 3.288v8.208h-3.024v-7.704c0-1.568-.776-2.352-2.328-2.352-.768 0-1.424.28-1.968.84-.528.544-.792 1.304-.792 2.28v6.936h-3.024v-12.384h2.928v1.776c.944-1.376 2.232-2.064 3.864-2.064zm12.836.288v2.304h-2.448v6.696c0 .4.104.68.312.84.224.16.592.24 1.104.24h1.032v2.304c-.656.064-1.184.096-1.584.096-1.344 0-2.328-.248-2.952-.744-.608-.512-.912-1.32-.912-2.424v-7.008h-1.92v-2.304h1.92v-3.6h3v3.6h2.448zm13.224 6.408v.72h-9.264c.112 1.056.44 1.856.984 2.4.56.528 1.304.792 2.232.792 1.376 0 2.32-.592 2.832-1.776h2.904c-.32 1.264-.992 2.272-2.016 3.024-1.024.736-2.272 1.104-3.744 1.104-1.84 0-3.328-.592-4.464-1.776-1.136-1.184-1.704-2.752-1.704-4.704s.56-3.52 1.68-4.704c1.136-1.184 2.616-1.776 4.44-1.776 1.872 0 3.36.616 4.464 1.848 1.104 1.232 1.656 2.848 1.656 4.848zm-6.144-4.344c-1.776 0-2.808.984-3.096 2.952h6.216c-.128-.912-.464-1.632-1.008-2.16-.544-.528-1.248-.792-2.112-.792zm17.025-.36v-1.704h2.928v11.976c0 1.68-.536 3-1.608 3.96-1.056.96-2.56 1.44-4.512 1.44-1.728 0-3.088-.384-4.08-1.152-.976-.768-1.512-1.824-1.608-3.168h2.976c.144 1.328 1.064 1.992 2.76 1.992.992 0 1.744-.256 2.256-.768.528-.512.792-1.256.792-2.232v-1.56c-.896 1.232-2.16 1.848-3.792 1.848-1.68 0-3.032-.584-4.056-1.752-1.024-1.136-1.536-2.656-1.536-4.56 0-1.92.512-3.448 1.536-4.584 1.008-1.152 2.352-1.728 4.032-1.728 1.744 0 3.048.664 3.912 1.992zm-3.216 8.136c1.008 0 1.792-.336 2.352-1.008.56-.672.84-1.608.84-2.808 0-1.2-.28-2.136-.84-2.808-.56-.672-1.344-1.008-2.352-1.008-.976 0-1.752.344-2.328 1.032-.56.672-.84 1.608-.84 2.808 0 1.184.28 2.112.84 2.784.576.672 1.352 1.008 2.328 1.008zm15.209-10.032c.272 0 .52.016.744.048v2.784h-.768c-1.152 0-2.04.296-2.664.888-.608.576-.912 1.432-.912 2.568v6.288h-3.024v-12.384h2.928v2.208c.688-1.6 1.92-2.4 3.696-2.4zm12.785 12.576h-3.024c-.144-.256-.256-.76-.336-1.512-.832 1.2-2.16 1.8-3.984 1.8-1.36 0-2.448-.328-3.264-.984-.8-.656-1.2-1.568-1.2-2.736 0-2.256 1.584-3.544 4.752-3.864l1.872-.168c.624-.08 1.072-.224 1.344-.432.272-.224.408-.552.408-.984 0-.528-.176-.912-.528-1.152-.336-.256-.912-.384-1.728-.384-.88 0-1.512.152-1.896.456-.384.288-.608.792-.672 1.512h-2.976c.176-2.816 2.032-4.224 5.568-4.224 3.44 0 5.16 1.24 5.16 3.72v6.6c0 1.088.168 1.872.504 2.352zm-6.624-1.872c.944 0 1.712-.256 2.304-.768.592-.528.888-1.28.888-2.256v-1.128c-.288.256-.76.424-1.416.504l-1.632.192c-.8.096-1.376.288-1.728.576-.336.272-.504.672-.504 1.2 0 .528.176.944.528 1.248.368.288.888.432 1.56.432zm14.507-10.512v2.304h-2.448v6.696c0 .4.104.68.312.84.224.16.592.24 1.104.24h1.032v2.304c-.656.064-1.184.096-1.584.096-1.344 0-2.328-.248-2.952-.744-.608-.512-.912-1.32-.912-2.424v-7.008h-1.92v-2.304h1.92v-3.6h3v3.6h2.448zm4.77-1.608h-2.976v-2.832h2.976v2.832zm.024 13.992h-3.024v-12.384h3.024v12.384zm14.485-6.192c0 1.952-.576 3.52-1.728 4.704-1.152 1.184-2.672 1.776-4.56 1.776-1.888 0-3.408-.592-4.56-1.776-1.168-1.168-1.752-2.736-1.752-4.704 0-1.968.584-3.536 1.752-4.704 1.152-1.184 2.672-1.776 4.56-1.776 1.888 0 3.408.584 4.56 1.752 1.152 1.168 1.728 2.744 1.728 4.728zm-8.664 2.952c.576.688 1.368 1.032 2.376 1.032 1.008 0 1.792-.344 2.352-1.032.576-.704.864-1.688.864-2.952s-.288-2.24-.864-2.928c-.56-.704-1.344-1.056-2.352-1.056-1.008 0-1.8.344-2.376 1.032-.56.688-.84 1.672-.84 2.952s.28 2.264.84 2.952zm17.353-9.432c1.344 0 2.4.392 3.168 1.176.784.768 1.176 1.864 1.176 3.288v8.208h-3.024v-7.704c0-1.568-.776-2.352-2.328-2.352-.768 0-1.424.28-1.968.84-.528.544-.792 1.304-.792 2.28v6.936h-3.024v-12.384h2.928v1.776c.944-1.376 2.232-2.064 3.864-2.064z" fill="#fff"/><path opacity=".1" d="M201.092 215.612l.05.079 63.547-40.259c5.014-3.176 7.946-7.992 8.573-14.341l.001-.002 5.03-50.142-77.201 104.665zm0 0l-1.268.802m1.268-.802l-1.268.802m0 0c-10.835 6.865-25.904 2.87-33.653-9.361-7.749-12.231-4.923-27.563 5.912-34.427l81.308-51.511 7.812-4.949c5.84-3.7 9.263-9.493 9.953-16.582l5.08-50.059.001-.004m-76.413 166.893l76.413-166.893m0 0c.627-6.345 3.556-11.163 8.645-14.387m-8.645 14.387l8.645-14.387m-17.189-52.77v-.009c.766-7.121 4.183-12.912 10.024-16.613l38.484-24.38c10.835-6.865 13.661-22.197 5.913-34.428-7.749-12.231-22.819-16.226-33.654-9.361l-14.178 8.982c-5.008 3.173-7.969 8.112-8.646 14.394l-.001.006-5.079 50.05v.003l-.001.002-1.492-.151 8.63 11.505zm0 0l-5.081 50.064v.004m5.081-50.068l-5.081 50.068m0 0c-.627 6.342-3.626 11.207-8.646 14.387m8.646-14.387l-8.646 14.387m30.916-11.685l64.742-41.016m-64.742 41.016l64.742-41.016m0 0c10.835-6.864 25.905-2.87 33.654 9.361m-33.654-9.36l33.654 9.36m0 0c7.749 12.232 4.923 27.563-5.913 34.428m5.913-34.428l-5.913 34.428m0 0l-42.028 26.626m42.028-26.626l-42.028 26.626m0 0l-25.39 16.085m25.39-16.085l-25.39 16.085m0 0l-21.629 13.703m21.629-13.703l-21.629 13.703m0 0c-5.831 3.694-9.311 9.402-10.025 16.624l10.025-16.624zm-34.352-47.502c-19.239 12.189-58.153 36.772-97.07 61.358m97.07-61.358l-97.07 61.358m0 0l-.01.006m.01-.006l-.01.006m0 0c-38.92 24.587-77.84 49.175-97.084 61.366m97.084-61.366l-97.084 61.366m0 0c-10.835 6.864-25.905 2.87-33.654-9.361m33.654 9.361l-33.654-9.361m0 0c-7.748-12.232-4.922-27.563 5.913-34.428m-5.913 34.428l5.913-34.428m0 0l.071-.045m-.071.045l.071-.045m0 0l.001-.001v.001zm254.604 52.23v-.004c.627-6.345 3.556-11.163 8.646-14.387l.225-.142.225-.143.226-.143.225-.143.226-.143.225-.143.226-.143.225-.142.226-.143.225-.143.226-.143.225-.143.226-.143.225-.142.226-.143.225-.143.226-.143.225-.143.226-.143.225-.142.225-.143.226-.143.225-.143.226-.143.225-.143.226-.142.225-.143.226-.143.225-.143.225-.143.226-.143.225-.142.226-.143.225-.143.226-.143.225-.143.226-.143.225-.142.225-.143.226-.143.225-.143.226-.143.225-.142.226-.143.225-.143.225-.143.226-.143.225-.142.226-.143.225-.143.225-.143.226-.143.225-.143.226-.142.225-.143.226-.143.225-.143.225-.143.226-.142.225-.143.226-.143.225-.143.225-.143.226-.142.225-.143.226-.143.225-.143.225-.142.226-.143.225-.143.226-.143.225-.143.225-.142.226-.143.225-.143.225-.143.226-.143.225-.142.226-.143.225-.143.225-.143.226-.143.225-.142.225-.143.226-.143.225-.143.226-.142.225-.143.225-.143.226-.143.225-.143.225-.142.226-.143.225-.143.226-.143.225-.142.225-.143.226-.143.225-.143.225-.142.226-.143.225-.143.225-.143.226-.143.225-.142.225-.143.226-.143.225-.143.225-.142.226-.143.225-.143.226-.143.225-.142.225-.143.226-.143.225-.143.225-.142.226-.143.225-.143.225-.143.226-.143.225-.142.225-.143.226-.143.225-.143.225-.142.226-.143.225-.143.225-.143.226-.142.225-.143.225-.143.226-.143.225-.142.225-.143.226-.143.225-.143.225-.142.225-.143.226-.143.225-.143.225-.142.226-.143.225-.143.225-.143.226-.142.225-.143.225-.143.226-.143.225-.142.225-.143.226-.143.225-.142.225-.143.226-.143.225-.143.225-.142.225-.143.226-.143.225-.143.225-.142.226-.143.225-.143.225-.143.226-.142.225-.143.225-.143.226-.143.225-.142.225-.143.225-.143.226-.143.225-.142.225-.143.226-.143.225-.142.225-.143.226-.143.225-.143.225-.142.225-.143.226-.143.225-.143.225-.142.226-.143.225-.143.225-.142.226-.143.225-.143.225-.143.225-.142.226-.143.225-.143.225-.143.226-.142.225-.143.225-.143.225-.142.226-.143.225-.143.225-.143.226-.142.225-.143.225-.143.225-.143.226-.142.225-.143.225-.143.226-.142.225-.143.225-.143.225-.143.226-.142.225-.143.225-.143.226-.143.225-.142.225-.143.225-.143.226-.142.225-.143.225-.143.226-.143.225-.142.225-.143.225-.143.226-.142.225-.143.225-.143.226-.143.225-.142.225-.143.225-.143.226-.143.225-.142.225-.143.225-.143.226-.142.225-.143.225-.143.226-.143.225-.142.225-.143.225-.143.226-.142.225-.143.225-.143.226-.143.225-.142.225-.143.225-.143.226-.143.225-.142.225-.143.225-.143.226-.142.225-.143.225-.143.226-.143.225-.142.225-.143.225-.143.226-.142.225-.143.225-.143.226-.143.225-.142.225-.143.225-.143.226-.142.225-.143.225-.143.225-.143.226-.142.225-.143.225-.143.226-.143.225-.142.225-.143.225-.143.226-.142.225-.143.225-.143.226-.143.225-.142.225-.143.225-.143.226-.142.225-.143.225-.143.226-.143.225-.142.225-.143.225-.143.226-.143.225-.142.225-.143.225-.143.226-.142.225-.143.225-.143.226-.143.225-.142.225-.143.225-.143.226-.142.225-.143.225-.143.226-.143.225-.142.225-.143.225-.143.226-.143.225-.142.225-.143.226-.143.225-.142.225-.143.226-.143.225-.143.225-.142.225-.143.226-.143.225-.143.225-.142.226-.143.225-.143.225-.142.225-.143.226-.143.225-.143.225-.142.226-.143.225-.143.225-.143.226-.142.225-.143.225-.143.225-.143.226-.142.225-.143.225-.143.226-.142.225-.143.225-.143.226-.143.225-.142.225-.143.225-.143.226-.143.225-.142.225-.143.226-.143.225-.143.225-.142.226-.143.225-.143.225-.143.226-.142.225-.143.225-.143.225-.143.226-.142.225-.143.225-.143.226-.143.225-.142.225-.143.226-.143.225-.142.225-.143.226-.143.225-.143.225-.142.226-.143.225-.143.225-.143.226-.142.225-.143.225-.143.226-.143.225-.142.225-.143.226-.143.225-.143.225-.142.226-.143.225-.143.225-.143.226-.143.225-.142.225-.143.226-.143.225-.143.225-.142.226-.143.225-.143.225-.143.226-.142.225-.143.225-.143.226-.143.225-.142.225-.143.226-.143.225-.143.225-.142.226-.143.225-.143.225-.143.226-.143.225-.142.226-.143.225-.143.225-.143.226-.142.225-.143.225-.143.226-.143.225-.142.225-.143.226-.143.225-.143.226-.143.225-.142.225-.143.226-.143.225-.143.225-.142.226-.143.225-.143.226-.143.225-.143.225-.142.226-.143.225-.143.225-.143.226-.143.225-.142.226-.143.225-.143.225-.143.226-.143.225-.142.226-.143.225-.143.225-.143.226-.142.225-.143.226-.143.225-.143.225-.143.226-.143.225-.142.226-.143.225-.143.225-.143.226-.142.225-.143.226-.143.225-.143.225-.143.226-.142.225-.143.226-.143.225-.143.225-.143.226-.142.225-.143.226-.143.225-.143.226-.143.225-.143.225-.142.226-.143.225-.143.226-.143.225-.143.226-.142.225-.143.226-.143.225-.143.225-.143.226-.143.225-.142.226-.143.225-.143.226-.143.225-.143.226-.143.225-.142.225-.143.226-.143.225-.143.226-.143.225-.143.226-.142.225-.143.226-.143.225-.143.226-.143.225-.143.226-.142.225-.143.226-.143.225-.143.226-.143.225-.143.225-.143.226-.142.225-.143.226-.143c10.835-6.865 25.905-2.87 33.654 9.36 7.749 12.232 4.923 27.564-5.913 34.428l-.072.046-139.684 88.494c-5.826 3.691-9.313 9.399-9.954 16.585v.01l-5.078 50.037-.001.003c-.676 6.283-3.638 11.223-8.646 14.396l-14.178 8.983c-10.835 6.864-25.905 2.87-33.654-9.362-7.749-12.231-4.923-27.562 5.913-34.427l38.556-24.426c5.839-3.699 9.261-9.492 9.953-16.58v-.003l5.08-50.058z" stroke="url(#d)" stroke-width="3"/></g><defs><linearGradient id="b" x1="46.369" y1="123.549" x2="372.355" y2="199.753" gradientUnits="userSpaceOnUse"><stop stop-color="#D853AB" stop-opacity=".6"/><stop offset=".443" stop-color="#DC5EA6"/><stop offset=".891" stop-color="#F90"/></linearGradient><linearGradient id="c" x1="192.664" y1="126.318" x2="380.674" y2="146.999" gradientUnits="userSpaceOnUse"><stop stop-color="#D853AB" stop-opacity=".6"/><stop offset=".443" stop-color="#DC5EA6"/><stop offset=".891" stop-color="#F90"/></linearGradient><linearGradient id="d" x1="294.12" y1="-46.27" x2="125.442" y2="96.692" gradientUnits="userSpaceOnUse"><stop stop-color="#9E0060"/><stop offset="1" stop-color="#fff" stop-opacity="0"/></linearGradient><clipPath id="a"><rect width="374" height="210" rx="3" fill="#fff"/></clipPath></defs></svg>