<svg width="374" height="210" viewBox="0 0 374 210" fill="none" xmlns="http://www.w3.org/2000/svg"><g clip-path="url(#a)"><rect width="374" height="210" rx="3" fill="url(#c)" filter="url(#b)"/><path d="M210.35 79.78L374-33.214V255L209.99 138.777c-20.399-14.455-20.213-44.792.36-58.997z" fill="url(#d)"/><path d="M262.382 81.84h4.032l-7.032 6.96 7.032 10.129h-3.864l-5.472-7.969-2.688 2.617v5.352h-3.24V81.84h3.24v8.064l7.992-8.064zm16.108 11.112v.72h-9.264c.112 1.056.44 1.856.984 2.4.56.528 1.304.793 2.232.793 1.376 0 2.32-.593 2.832-1.776h2.904c-.32 1.264-.992 2.272-2.016 3.023-1.024.737-2.272 1.105-3.744 1.105-1.84 0-3.328-.593-4.464-1.776-1.136-1.184-1.704-2.752-1.704-4.704 0-1.953.56-3.52 1.68-4.704 1.136-1.184 2.616-1.776 4.44-1.776 1.872 0 3.36.615 4.464 1.847 1.104 1.233 1.656 2.849 1.656 4.849zm-6.144-4.343c-1.776 0-2.808.984-3.096 2.952h6.216c-.128-.913-.464-1.633-1.008-2.16-.544-.528-1.248-.792-2.112-.792zm14.567 1.056l1.008-3.12h3.168l-4.776 13.391c-.512 1.408-1.152 2.376-1.92 2.904-.784.544-1.92.816-3.408.816-.496 0-.936-.024-1.32-.072v-2.376h1.152c.656 0 1.16-.184 1.512-.552.352-.368.528-.848.528-1.44 0-.591-.192-1.423-.576-2.495l-3.6-10.177h3.264l1.008 3.097c.704 2.207 1.36 4.511 1.968 6.911.48-1.808 1.144-4.104 1.992-6.888zm19.355 1.511l1.392-4.632h3.24l-4.08 12.385h-3.168l-1.56-5.088c-.592-2.08-.944-3.313-1.056-3.697-.048.176-.392 1.408-1.032 3.697l-1.536 5.088H295.3l-4.08-12.385h3.24l1.392 4.633c.352 1.103.76 2.535 1.224 4.295a96.38 96.38 0 0 1 1.176-4.32l1.368-4.608h2.88l1.368 4.609a96.38 96.38 0 0 1 1.176 4.32 97.71 97.71 0 0 1 1.224-4.296zm17.348 1.56c0 1.953-.576 3.52-1.728 4.704-1.152 1.184-2.672 1.776-4.56 1.776-1.888 0-3.408-.591-4.56-1.775-1.168-1.169-1.752-2.737-1.752-4.704 0-1.968.584-3.536 1.752-4.704 1.152-1.184 2.672-1.776 4.56-1.776 1.888 0 3.408.584 4.56 1.751 1.152 1.169 1.728 2.745 1.728 4.729zm-8.664 2.953c.576.688 1.368 1.032 2.376 1.032 1.008 0 1.792-.345 2.352-1.032.576-.704.864-1.688.864-2.952s-.288-2.24-.864-2.928c-.56-.704-1.344-1.056-2.352-1.056-1.008 0-1.8.344-2.376 1.031-.56.688-.84 1.672-.84 2.953 0 1.28.28 2.264.84 2.952zm17.185-9.336c.272 0 .52.016.744.047v2.784h-.768c-1.152 0-2.04.297-2.664.889-.608.576-.912 1.431-.912 2.568v6.287h-3.024V86.546h2.928v2.207c.688-1.6 1.92-2.4 3.696-2.4zm10.646 1.8V81.84h3.024v17.088h-2.928v-1.727c-.912 1.344-2.216 2.016-3.912 2.016-1.712 0-3.064-.593-4.056-1.776-1.008-1.184-1.512-2.752-1.512-4.704 0-1.984.504-3.56 1.512-4.728.976-1.168 2.328-1.752 4.056-1.752 1.664 0 2.936.631 3.816 1.895zm-6.288 4.68c0 1.28.28 2.248.84 2.904.56.656 1.336.984 2.328.984.992 0 1.776-.345 2.352-1.032.56-.688.84-1.672.84-2.952s-.28-2.264-.84-2.953c-.56-.688-1.344-1.032-2.352-1.032-.976 0-1.752.36-2.328 1.08-.56.72-.84 1.72-.84 3zm16.624 6.431c-3.616 0-5.504-1.423-5.664-4.271h2.952c.08.767.328 1.312.744 1.632.432.32 1.104.48 2.016.48 1.632 0 2.448-.496 2.448-1.489 0-.448-.176-.791-.528-1.031-.352-.24-.984-.44-1.896-.6l-1.416-.24c-2.704-.449-4.056-1.697-4.056-3.745 0-1.168.448-2.08 1.344-2.736.896-.671 2.16-1.007 3.792-1.007 3.536 0 5.36 1.4 5.472 4.2h-2.856c-.032-.736-.264-1.256-.696-1.56-.432-.32-1.072-.48-1.92-.48-1.44 0-2.16.48-2.16 1.44 0 .415.16.743.48.984.32.224.848.4 1.584.528l1.56.24c1.504.272 2.592.704 3.264 1.296.688.591 1.032 1.415 1.032 2.471 0 1.248-.48 2.209-1.44 2.88-.96.672-2.312 1.008-4.056 1.008zm-63.986 21.712l2.856-8.136h4.704v17.088h-3.096v-5.208c0-3.2.032-6.024.096-8.472a69.731 69.731 0 0 1-1.296 3.936l-3.456 9.744h-2.664l-3.48-9.744c-.608-1.776-1.032-3.072-1.272-3.888.064 2.432.096 5.24.096 8.424v5.208h-3.12V112.84h4.704l2.952 8.304c.192.56.68 2.104 1.464 4.632a93.063 93.063 0 0 1 1.512-4.8zm22.202 2.76c0 1.952-.576 3.52-1.728 4.704-1.152 1.184-2.672 1.776-4.56 1.776-1.888 0-3.408-.592-4.56-1.776-1.168-1.168-1.752-2.736-1.752-4.704 0-1.968.584-3.536 1.752-4.704 1.152-1.184 2.672-1.776 4.56-1.776 1.888 0 3.408.584 4.56 1.752 1.152 1.168 1.728 2.744 1.728 4.728zm-8.664 2.952c.576.688 1.368 1.032 2.376 1.032 1.008 0 1.792-.344 2.352-1.032.576-.704.864-1.688.864-2.952s-.288-2.24-.864-2.928c-.56-.704-1.344-1.056-2.352-1.056-1.008 0-1.8.344-2.376 1.032-.56.688-.84 1.672-.84 2.952s.28 2.264.84 2.952zm19.393-7.536v-6.312h3.024v17.088h-2.928V128.2c-.912 1.344-2.216 2.016-3.912 2.016-1.712 0-3.064-.592-4.056-1.776-1.008-1.184-1.512-2.752-1.512-4.704 0-1.984.504-3.56 1.512-4.728.976-1.168 2.328-1.752 4.056-1.752 1.664 0 2.936.632 3.816 1.896zm-6.288 4.68c0 1.28.28 2.248.84 2.904.56.656 1.336.984 2.328.984.992 0 1.776-.344 2.352-1.032.56-.688.84-1.672.84-2.952s-.28-2.264-.84-2.952c-.56-.688-1.344-1.032-2.352-1.032-.976 0-1.752.36-2.328 1.08-.56.72-.84 1.72-.84 3zm19.865.648v-6.936h3.024v12.384h-2.928v-1.8c-.944 1.392-2.24 2.088-3.888 2.088-1.328 0-2.384-.384-3.168-1.152-.768-.784-1.152-1.888-1.152-3.312v-8.208h3.024v7.704c0 1.568.776 2.352 2.328 2.352.768 0 1.416-.272 1.944-.816.544-.56.816-1.328.816-2.304zm8.505 5.448h-3.024V112.84h3.024v17.088zm14.125-5.976v.72h-9.264c.112 1.056.44 1.856.984 2.4.56.528 1.304.792 2.232.792 1.376 0 2.32-.592 2.832-1.776h2.904c-.32 1.264-.992 2.272-2.016 3.024-1.024.736-2.272 1.104-3.744 1.104-1.84 0-3.328-.592-4.464-1.776-1.136-1.184-1.704-2.752-1.704-4.704s.56-3.52 1.68-4.704c1.136-1.184 2.616-1.776 4.44-1.776 1.872 0 3.36.616 4.464 1.848 1.104 1.232 1.656 2.848 1.656 4.848zm-6.144-4.344c-1.776 0-2.808.984-3.096 2.952h6.216c-.128-.912-.464-1.632-1.008-2.16-.544-.528-1.248-.792-2.112-.792z" fill="#fff"/><path opacity=".3" d="M101.126 248.247l.065.109 81.676-56.178c6.525-4.487 10.326-11.268 11.096-20.161v-.002l6.073-69.028-98.91 145.26zm0 0l-1.236.85m1.236-.85l-1.236.85m0 0c-14.076 9.682-33.751 4.221-43.941-12.787-10.19-17.007-6.633-38.447 7.443-48.129L167.4 116.642l9.994-6.874c7.358-5.061 11.636-12.928 12.455-22.532l.001-.003 6.138-68.915v-.004M99.89 249.097l96.099-230.783m0 0c.77-8.89 4.569-15.672 11.189-20.225m-11.189 20.225l11.189-20.225m0 0l82.819-56.965M207.178-1.91l82.819-56.965m0 0c14.076-9.681 33.751-4.22 43.941 12.787m-43.941-12.787l43.941 12.787m0 0c10.19 17.008 6.633 38.448-7.443 48.13m7.443-48.13l-7.443 48.13m0 0l-53.763 36.978m53.763-36.978l-53.763 36.978m0 0l-32.48 22.34m32.48-22.34l-32.48 22.34m0 0L212.584 80.39m27.668-19.03l-27.668 19.03m0 0c-7.35 5.055-11.699 12.808-12.547 22.594l12.547-22.594zM185.436-73.84v.01l-6.139 68.92v.004c-.77 8.886-4.659 15.734-11.189 20.225-24.612 16.929-74.394 51.073-124.179 85.219l-.01.007c-49.787 34.148-99.576 68.297-124.191 85.228-14.076 9.682-33.751 4.221-43.941-12.786-10.191-17.008-6.633-38.448 7.442-48.13l.092-.063h.001L162.793-67.045h.001c7.357-5.061 11.635-12.928 12.455-22.53v-.006l6.138-68.906v-.003c.834-8.799 4.67-15.751 11.189-20.235l18.137-12.475c14.076-9.681 33.751-4.221 43.941 12.787 10.191 17.008 6.634 38.448-7.442 48.129l-49.229 33.86c-7.36 5.063-11.632 12.929-12.547 22.584zm25.023 268.753v-.004c.77-8.889 4.569-15.672 11.189-20.225l.289-.198.288-.199.288-.198.289-.199.288-.198.289-.198.288-.199.289-.198.288-.198.288-.199.289-.198.288-.199.289-.198.288-.198.289-.199.288-.198.288-.199.289-.198.288-.198.289-.199.288-.198.288-.198.289-.199.288-.198.289-.198.288-.199.288-.198.289-.199.288-.198.289-.198.288-.199.288-.198.289-.198.288-.199.289-.198.288-.198.288-.199.289-.198.288-.198.288-.199.289-.198.288-.199.289-.198.288-.198.288-.199.289-.198.288-.198.288-.199.289-.198.288-.198.288-.199.289-.198.288-.198.289-.199.288-.198.288-.198.289-.199.288-.198.288-.198.289-.199.288-.198.288-.198.289-.198.288-.199.288-.198.289-.198.288-.199.288-.198.289-.198.288-.199.288-.198.289-.198.288-.199.288-.198.288-.198.289-.199.288-.198.288-.198.289-.198.288-.199.288-.198.289-.198.288-.199.288-.198.289-.198.288-.199.288-.198.288-.198.289-.198.288-.199.288-.198.289-.198.288-.199.288-.198.289-.198.288-.198.288-.199.288-.198.289-.198.288-.199.288-.198.288-.198.289-.198.288-.199.288-.198.289-.198.288-.199.288-.198.288-.198.289-.198.288-.199.288-.198.288-.198.289-.198.288-.199.288-.198.289-.198.288-.199.288-.198.288-.198.289-.198.288-.199.288-.198.288-.198.289-.198.288-.199.288-.198.288-.198.289-.198.288-.199.288-.198.288-.198.289-.198.288-.199.288-.198.288-.198.288-.198.289-.199.288-.198.288-.198.288-.198.289-.199.288-.198.288-.198.288-.198.289-.199.288-.198.288-.198.288-.199.288-.198.289-.198.288-.198.288-.198.288-.199.289-.198.288-.198.288-.198.288-.199.288-.198.289-.198.288-.198.288-.199.288-.198.289-.198.288-.198.288-.199.288-.198.288-.198.289-.198.288-.199.288-.198.288-.198.288-.198.289-.198.288-.199.288-.198.288-.198.288-.198.289-.199.288-.198.288-.198.288-.198.288-.199.289-.198.288-.198.288-.198.288-.198.288-.199.289-.198.288-.198.288-.198.288-.199.288-.198.289-.198.288-.198.288-.198.288-.199.288-.198.289-.198.288-.198.288-.199.288-.198.288-.198.289-.198.288-.198.288-.199.288-.198.288-.198.289-.198.288-.199.288-.198.288-.198.288-.198.288-.198.289-.199.288-.198.288-.198.288-.198.288-.199.289-.198.288-.198.288-.198.288-.198.288-.199.289-.198.288-.198.288-.198.288-.199.288-.198.288-.198.289-.198.288-.198.288-.199.288-.198.288-.198.289-.198.288-.198.288-.199.288-.198.288-.198.288-.198.289-.198.288-.199.288-.198.288-.198.288-.198.289-.199.288-.198.288-.198.288-.198.288-.198.288-.199.289-.198.288-.198.288-.198.288-.198.288-.199.288-.198.289-.198.288-.198.288-.199.288-.198.288-.198.289-.198.288-.198.288-.199.288-.198.288-.198.288-.198.289-.198.288-.199.288-.198.288-.198.288-.198.289-.199.288-.198.288-.198.288-.198.288-.198.288-.199.289-.198.288-.198.288-.198.288-.198.288-.199.289-.198.288-.198.288-.198.288-.199.288-.198.288-.198.289-.198.288-.198.288-.199.288-.198.288-.198.289-.198.288-.199.288-.198.288-.198.288-.198.289-.198.288-.199.288-.198.288-.198.288-.198.288-.199.289-.198.288-.198.288-.198.288-.198.288-.199.289-.198.288-.198.288-.198.288-.199.288-.198.289-.198.288-.198.288-.198.288-.199.288-.198.289-.198.288-.198.288-.199.288-.198.288-.198.289-.198.288-.198.288-.199.288-.198.288-.198.289-.198.288-.199.288-.198.288-.198.288-.198.289-.199.288-.198.288-.198.288-.198.288-.198.289-.199.288-.198.288-.198.288-.198.288-.199.289-.198.288-.198.288-.198.288-.199.289-.198.288-.198.288-.198.288-.199.288-.198.289-.198.288-.198.288-.199.288-.198.289-.198.288-.198.288-.198.288-.199.288-.198.289-.198.288-.198.288-.199.288-.198.289-.198.288-.198.288-.199.288-.198.289-.198.288-.198.288-.199.288-.198.289-.198.288-.199.288-.198.288-.198.288-.198.289-.198.288-.199.288-.198.288-.198.289-.199.288-.198.288-.198.288-.198.289-.199.288-.198.288-.198.288-.198.289-.199.288-.198.288-.198.289-.198.288-.199.288-.198.288-.198.289-.199.288-.198.288-.198.288-.198.289-.199.288-.198.288-.198.288-.198.289-.199.288-.198.288-.198.289-.199.288-.198.288-.198.288-.199.289-.198.288-.198.288-.198.289-.199.288-.198.288-.198.288-.199.289-.198.288-.198.288-.198.289-.199.288-.198.288-.198.289-.199.288-.198.288-.198.288-.198.289-.199.288-.198.288-.198.289-.199.288-.198.288-.198.289-.199.288-.198.288-.198.289-.199.288-.198.288-.198.289-.199.288-.198.288-.198.289-.198.288-.199.288-.198.289-.198.288-.199.288-.198.289-.198.288-.199.288-.198.289-.198.288-.199.288-.198.289-.198.288-.199.288-.198.289-.198.288-.199.289-.198.288-.198.288-.199.289-.198.288-.198.288-.199.289-.198.288-.199.288-.198.289-.198.288-.199.289-.198.288-.198.288-.199.289-.198.288-.198.289-.199.288-.198.288-.198.289-.199.288-.198.289-.199.288-.198.288-.198.289-.199.288-.198.289-.198.288-.199.288-.198.289-.198.288-.199.289-.198.288-.199.288-.198.289-.198.288-.199.289-.198.288-.198.289-.199.288-.198.289-.199.288-.198.288-.199.289-.198.288-.198.289-.199.288-.198c14.076-9.682 33.751-4.22 43.941 12.787 10.191 17.007 6.634 38.447-7.442 48.129l-.093.064-178.686 122.902c-7.346 5.053-11.702 12.806-12.456 22.539v.009l-6.136 68.893-.001.006c-.835 8.797-4.671 15.749-11.189 20.232l-18.137 12.475c-14.076 9.682-33.751 4.221-43.941-12.786-10.191-17.008-6.634-38.448 7.442-48.13l49.322-33.924c7.358-5.061 11.636-12.929 12.455-22.533v-.002l6.138-68.915z" stroke="url(#e)" stroke-width="3"/></g><defs><filter id="b" x="-15" y="-11" width="404" height="240" filterUnits="userSpaceOnUse" color-interpolation-filters="sRGB"><feFlood flood-opacity="0" result="BackgroundImageFix"/><feColorMatrix in="SourceAlpha" values="0 0 0 0 0 0 0 0 0 0 0 0 0 0 0 0 0 0 127 0"/><feOffset dy="4"/><feGaussianBlur stdDeviation="7.5"/><feColorMatrix values="0 0 0 0 0.390675 0 0 0 0 0.402439 0 0 0 0 0.508319 0 0 0 0.15 0"/><feBlend in2="BackgroundImageFix" result="effect1_dropShadow"/><feBlend in="SourceGraphic" in2="effect1_dropShadow" result="shape"/></filter><linearGradient id="c" x1="187" x2="187" y2="210" gradientUnits="userSpaceOnUse"><stop stop-color="#003177"/><stop offset="1" stop-color="#096FC4"/></linearGradient><linearGradient id="d" x1="271" y1="-33.214" x2="271" y2="255" gradientUnits="userSpaceOnUse"><stop stop-color="#0552BB"/><stop offset="1" stop-color="#C7DFFF" stop-opacity="0"/></linearGradient><linearGradient id="e" x1="84.149" y1="28.029" x2="415.035" y2="-22.846" gradientUnits="userSpaceOnUse"><stop stop-color="#178BD3"/><stop offset="1" stop-color="#fff" stop-opacity=".26"/></linearGradient><clipPath id="a"><rect width="374" height="210" rx="3" fill="#fff"/></clipPath></defs></svg>