<svg width="750" height="421" viewBox="0 0 750 421" fill="none" xmlns="http://www.w3.org/2000/svg"><g clip-path="url(#a)"><path d="M389.617 128.795L752.86-133.927v687.94L388.658 283.666c-52.107-38.679-51.623-116.84.959-154.871z" fill="url(#b)"/><path opacity=".3" d="M252.102 469.708l-.116-.193-1.206.892c-25.179 18.631-60.334 9.477-78.606-21.017-18.273-30.494-12.315-70.067 12.864-88.698l181.314-134.157 17.421-12.89c12.501-9.25 19.735-23.261 21.039-40.244v-.001l10-124.353v-.005c1.279-16.39 8.029-29.162 19.891-37.939L579.076-95.72c25.179-18.63 60.334-9.477 78.606 21.017 18.273 30.494 12.315 70.068-12.864 88.698L551.096 83.34l-56.619 41.894-48.232 35.688c-12.494 9.244-19.85 23.057-21.201 40.363l-9.884 124.549v.003c-1.28 16.393-8.032 29.164-19.729 37.82L252.102 469.708zM397.568-116.19l-.001.01-10 124.359v.004c-1.279 16.386-8.187 29.28-19.89 37.94-42.907 31.746-129.693 95.787-216.483 159.83l-.01.007C64.392 270.005-22.402 334.051-65.311 365.801c-25.18 18.631-60.335 9.477-78.607-21.017s-12.315-70.068 12.864-88.698l.161-.119h.001l487.187-359.782.001-.001c12.501-9.25 19.735-23.261 21.039-40.243v-.002l9.999-124.344v-.004c1.394-16.215 8.199-29.297 19.891-37.948l31.617-23.394c25.18-18.631 60.335-9.477 78.607 21.017s12.315 70.067-12.864 88.698l-85.818 63.497c-12.503 9.252-19.731 23.26-21.199 40.349zm44.49 482.312v-.005c1.279-16.389 8.029-29.162 19.891-37.939l.502-.372.503-.372.503-.372.503-.372.503-.372.503-.372.502-.372.503-.372.503-.372.503-.372.503-.372.502-.372.503-.372.503-.372.503-.372.503-.372.502-.372.503-.372.503-.372.503-.372.502-.372.503-.372.503-.372.503-.372.502-.372.503-.372.503-.372.503-.372.502-.372.503-.372.503-.372.503-.372.502-.372.503-.372.503-.372.502-.372.503-.372.503-.372.503-.372.502-.372.503-.372.503-.372.502-.372.503-.372.503-.372.502-.372.503-.372.503-.372.502-.371.503-.372.503-.372.502-.372.503-.372.503-.372.502-.372.503-.372.503-.372.502-.372.503-.372.503-.372.502-.372.503-.371.503-.372.502-.372.503-.372.502-.372.503-.372.503-.372.502-.372.503-.372.503-.371.502-.372.503-.372.502-.372.503-.372.503-.372.502-.372.503-.372.502-.372.503-.371.503-.372.502-.372.503-.372.502-.372.503-.372.502-.372.503-.371.503-.372.502-.372.503-.372.502-.372.503-.372.502-.372.503-.371.502-.372.503-.372.503-.372.502-.372.503-.372.502-.372.503-.371.502-.372.503-.372.502-.372.503-.372.502-.371.503-.372.502-.372.503-.372.502-.372.503-.372.502-.371.503-.372.502-.372.503-.372.502-.372.503-.371.503-.372.502-.372.503-.372.502-.372.502-.372.503-.371.502-.372.503-.372.502-.372.503-.372.502-.371.503-.372.502-.372.503-.372.502-.371.503-.372.502-.372.503-.372.502-.372.503-.371.502-.372.503-.372.502-.372.502-.371.503-.372.502-.372.503-.372.502-.372.503-.371.502-.372.503-.372.502-.372.503-.371.502-.372.502-.372.503-.372.502-.371.503-.372.502-.372.503-.372.502-.372.503-.371.502-.372.502-.372.503-.372.502-.371.503-.372.502-.372.502-.372.503-.371.502-.372.503-.372.502-.372.503-.371.502-.372.502-.372.503-.372.502-.371.503-.372.502-.372.502-.372.503-.371.502-.372.503-.372.502-.371.502-.372.503-.372.502-.372.503-.371.502-.372.502-.372.503-.372.502-.371.503-.372.502-.372.502-.372.503-.371.502-.372.503-.372.502-.371.502-.372.503-.372.502-.372.503-.371.502-.372.502-.372.503-.371.502-.372.502-.372.503-.372.502-.371.503-.372.502-.372.502-.372.503-.371.502-.372.502-.372.503-.371.502-.372.503-.372.502-.371.502-.372.503-.372.502-.372.502-.371.503-.372.502-.372.503-.371.502-.372.502-.372.503-.372.502-.371.502-.372.503-.372.502-.371.502-.372.503-.372.502-.372.503-.371.502-.372.502-.372.503-.371.502-.372.502-.372.503-.372.502-.371.503-.372.502-.372.502-.371.503-.372.502-.372.502-.372.503-.371.502-.372.502-.372.503-.371.502-.372.503-.372.502-.371.502-.372.503-.372.502-.372.502-.371.503-.372.502-.372.502-.371.503-.372.502-.372.503-.372.502-.371.502-.372.503-.372.502-.371.502-.372.503-.372.502-.371.502-.372.503-.372.502-.372.503-.371.502-.372.502-.372.503-.371.502-.372.502-.372.503-.372.502-.371.502-.372.503-.372.502-.371.503-.372.502-.372.502-.372.503-.371.502-.372.502-.372.503-.371.502-.372.503-.372.502-.372.502-.371.503-.372.502-.372.502-.371.503-.372.502-.372.503-.372.502-.371.502-.372.503-.372.502-.371.502-.372.503-.372.502-.372.503-.371.502-.372.502-.372.503-.371.502-.372.503-.372.502-.372.502-.371.503-.372.502-.372.503-.372.502-.371.502-.372.503-.372.502-.372.502-.371.503-.372.502-.372.503-.371.502-.372.502-.372.503-.372.502-.371.503-.372.502-.372.503-.372.502-.371.502-.372.503-.372.502-.372.503-.371.502-.372.502-.372.503-.372.502-.371.503-.372.502-.372.503-.372.502-.371.502-.372.503-.372.502-.372.503-.371.502-.372.503-.372.502-.372.502-.371.503-.372.502-.372.503-.372.502-.371.503-.372.502-.372.503-.372.502-.372.502-.371.503-.372.502-.372.503-.372.502-.371.503-.372.502-.372.503-.372.502-.372.503-.371.502-.372.503-.372.502-.372.502-.371.503-.372.502-.372.503-.372.502-.372.503-.371.502-.372.503-.372.502-.372.503-.372.502-.371.503-.372.502-.372.503-.372.502-.372.503-.371.502-.372.503-.372.502-.372.503-.372.502-.371.503-.372.502-.372.503-.372.502-.372.503-.372.502-.371.503-.372.502-.372.503-.372.502-.372.503-.372.503-.371.502-.372.503-.372.502-.372.503-.372.502-.372.503-.371.502-.372.503-.372.502-.372.503-.372.503-.372.502-.372.503-.371.502-.372.503-.372.502-.372.503-.372.503-.372.502-.372.503-.371.502-.372.503-.372.503-.372.502-.372.503-.372.502-.372.503-.372.503-.371.502-.372.503-.372.502-.372.503-.372.503-.372.502-.372.503-.372.503-.372.502-.372.503-.371.502-.372.503-.372.503-.372.502-.372.503-.372.503-.372.502-.372.503-.372.503-.372.502-.372.503-.372.503-.372.502-.371.503-.372.503-.372.502-.372.503-.372.503-.372.502-.372.503-.372.503-.372.502-.372.503-.372.503-.372.503-.372.502-.372.503-.372.503-.372.502-.372.503-.372.503-.372.503-.372.502-.372.503-.372.503-.372.503-.372.502-.372.503-.372.503-.372.503-.372.502-.372.503-.372.503-.372.503-.372.502-.372.503-.372.503-.372.503-.372.502-.372.503-.372.503-.372.503-.372.503-.372.503-.372.502-.372.503-.372.503-.372.503-.372.503-.372.502-.372.503-.372.503-.372c25.179-18.631 60.335-9.477 78.607 21.017s12.315 70.067-12.865 88.698l-.161.119-311.491 230.477c-12.489 9.241-19.851 23.054-21.039 40.249l-.001.01-9.998 124.33v.006c-1.394 16.214-8.199 29.296-19.891 37.947l-31.617 23.394c-25.18 18.63-60.335 9.477-78.607-21.017s-12.315-70.068 12.864-88.698l85.979-63.617c12.501-9.25 19.735-23.26 21.039-40.241v-.005l10-124.352z" stroke="url(#c)" stroke-width="3"/><path d="M492.396 194.72c-4.62 0-8.355-1.515-11.205-4.545-2.88-3.03-4.32-7.095-4.32-12.195 0-5.13 1.425-9.21 4.275-12.24 2.82-3 6.57-4.5 11.25-4.5 3.75 0 6.945 1.005 9.585 3.015 2.64 2.01 4.29 4.92 4.95 8.73h-6.165c-.54-2.1-1.545-3.69-3.015-4.77-1.44-1.11-3.225-1.665-5.355-1.665-2.85 0-5.1 1.02-6.75 3.06-1.62 2.01-2.43 4.8-2.43 8.37 0 3.6.81 6.405 2.43 8.415 1.62 2.01 3.87 3.015 6.75 3.015 2.22 0 4.125-.66 5.715-1.98 1.59-1.32 2.55-3.15 2.88-5.49h6.075c-.39 4.08-1.98 7.23-4.77 9.45-2.76 2.22-6.06 3.33-9.9 3.33zm33.108-10.935V170.78h5.67V194h-5.49v-3.375c-1.77 2.61-4.2 3.915-7.29 3.915-2.49 0-4.47-.72-5.94-2.16-1.44-1.47-2.16-3.54-2.16-6.21v-15.39h5.67v14.445c0 2.94 1.455 4.41 4.365 4.41 1.44 0 2.655-.51 3.645-1.53 1.02-1.05 1.53-2.49 1.53-4.32zm19.413 10.845c-6.78 0-10.32-2.67-10.62-8.01h5.535c.15 1.44.615 2.46 1.395 3.06.81.6 2.07.9 3.78.9 3.06 0 4.59-.93 4.59-2.79 0-.84-.33-1.485-.99-1.935-.66-.45-1.845-.825-3.555-1.125l-2.655-.45c-5.07-.84-7.605-3.18-7.605-7.02 0-2.19.84-3.9 2.52-5.13 1.68-1.26 4.05-1.89 7.11-1.89 6.63 0 10.05 2.625 10.26 7.875h-5.355c-.06-1.38-.495-2.355-1.305-2.925-.81-.6-2.01-.9-3.6-.9-2.7 0-4.05.9-4.05 2.7 0 .78.3 1.395.9 1.845.6.42 1.59.75 2.97.99l2.925.45c2.82.51 4.86 1.32 6.12 2.43 1.29 1.11 1.935 2.655 1.935 4.635 0 2.34-.9 4.14-2.7 5.4-1.8 1.26-4.335 1.89-7.605 1.89zm25.075-23.85v4.32h-4.59v12.555c0 .75.195 1.275.585 1.575.42.3 1.11.45 2.07.45h1.935V194c-1.23.12-2.22.18-2.97.18-2.52 0-4.365-.465-5.535-1.395-1.14-.96-1.71-2.475-1.71-4.545V175.1h-3.6v-4.32h3.6v-6.75h5.625v6.75h4.59zm25.47 11.61c0 3.66-1.08 6.6-3.24 8.82-2.16 2.22-5.01 3.33-8.55 3.33-3.54 0-6.39-1.11-8.55-3.33-2.19-2.19-3.285-5.13-3.285-8.82 0-3.69 1.095-6.63 3.285-8.82 2.16-2.22 5.01-3.33 8.55-3.33 3.54 0 6.39 1.095 8.55 3.285 2.16 2.19 3.24 5.145 3.24 8.865zm-16.245 5.535c1.08 1.29 2.565 1.935 4.455 1.935 1.89 0 3.36-.645 4.41-1.935 1.08-1.32 1.62-3.165 1.62-5.535s-.54-4.2-1.62-5.49c-1.05-1.32-2.52-1.98-4.41-1.98-1.89 0-3.375.645-4.455 1.935-1.05 1.29-1.575 3.135-1.575 5.535 0 2.4.525 4.245 1.575 5.535zm46.308-17.685c2.55 0 4.53.75 5.94 2.25 1.44 1.5 2.16 3.555 2.16 6.165V194h-5.67v-14.445c0-2.94-1.335-4.41-4.005-4.41-1.44 0-2.61.525-3.51 1.575-.87 1.02-1.305 2.52-1.305 4.5V194h-5.625v-14.445c0-2.94-1.35-4.41-4.05-4.41-1.41 0-2.565.525-3.465 1.575-.87 1.02-1.305 2.52-1.305 4.5V194h-5.67v-23.22h5.49v3.33c1.59-2.58 3.795-3.87 6.615-3.87 3.54 0 5.94 1.44 7.2 4.32 1.74-2.88 4.14-4.32 7.2-4.32zm34.609 12.555v1.35h-17.37c.21 1.98.825 3.48 1.845 4.5 1.05.99 2.445 1.485 4.185 1.485 2.58 0 4.35-1.11 5.31-3.33h5.445c-.6 2.37-1.86 4.26-3.78 5.67-1.92 1.38-4.26 2.07-7.02 2.07-3.45 0-6.24-1.11-8.37-3.33-2.13-2.22-3.195-5.16-3.195-8.82s1.05-6.6 3.15-8.82c2.13-2.22 4.905-3.33 8.325-3.33 3.51 0 6.3 1.155 8.37 3.465 2.07 2.31 3.105 5.34 3.105 9.09zm-11.52-8.145c-3.33 0-5.265 1.845-5.805 5.535h11.655c-.24-1.71-.87-3.06-1.89-4.05-1.02-.99-2.34-1.485-3.96-1.485zm27.601-4.23c.51 0 .975.03 1.395.09v5.22h-1.44c-2.16 0-3.825.555-4.995 1.665-1.14 1.08-1.71 2.685-1.71 4.815V194h-5.67v-23.22h5.49v4.14c1.29-3 3.6-4.5 6.93-4.5zm13.107 24.21c-6.78 0-10.32-2.67-10.62-8.01h5.535c.15 1.44.615 2.46 1.395 3.06.81.6 2.07.9 3.78.9 3.06 0 4.59-.93 4.59-2.79 0-.84-.33-1.485-.99-1.935-.66-.45-1.845-.825-3.555-1.125l-2.655-.45c-5.07-.84-7.605-3.18-7.605-7.02 0-2.19.84-3.9 2.52-5.13 1.68-1.26 4.05-1.89 7.11-1.89 6.63 0 10.05 2.625 10.26 7.875h-5.355c-.06-1.38-.495-2.355-1.305-2.925-.81-.6-2.01-.9-3.6-.9-2.7 0-4.05.9-4.05 2.7 0 .78.3 1.395.9 1.845.6.42 1.59.75 2.97.99l2.925.45c2.82.51 4.86 1.32 6.12 2.43 1.29 1.11 1.935 2.655 1.935 4.635 0 2.34-.9 4.14-2.7 5.4-1.8 1.26-4.335 1.89-7.605 1.89zm-148.583 40.585l5.355-15.255h8.82V252h-5.805v-9.765c0-6 .06-11.295.18-15.885-.66 2.25-1.47 4.71-2.43 7.38l-6.48 18.27h-4.995l-6.525-18.27c-1.14-3.33-1.935-5.76-2.385-7.29.12 4.56.18 9.825.18 15.795V252h-5.85v-32.04h8.82l5.535 15.57c.36 1.05 1.275 3.945 2.745 8.685.96-3.33 1.905-6.33 2.835-9zM580.437 252h-5.67c-.27-.48-.48-1.425-.63-2.835-1.56 2.25-4.05 3.375-7.47 3.375-2.55 0-4.59-.615-6.12-1.845-1.5-1.23-2.25-2.94-2.25-5.13 0-4.23 2.97-6.645 8.91-7.245l3.51-.315c1.17-.15 2.01-.42 2.52-.81.51-.42.765-1.035.765-1.845 0-.99-.33-1.71-.99-2.16-.63-.48-1.71-.72-3.24-.72-1.65 0-2.835.285-3.555.855-.72.54-1.14 1.485-1.26 2.835h-5.58c.33-5.28 3.81-7.92 10.44-7.92 6.45 0 9.675 2.325 9.675 6.975v12.375c0 2.04.315 3.51.945 4.41zm-12.42-3.51c1.77 0 3.21-.48 4.32-1.44 1.11-.99 1.665-2.4 1.665-4.23v-2.115c-.54.48-1.425.795-2.655.945l-3.06.36c-1.5.18-2.58.54-3.24 1.08-.63.51-.945 1.26-.945 2.25s.33 1.77.99 2.34c.69.54 1.665.81 2.925.81zm28.533-20.25c2.52 0 4.5.735 5.94 2.205 1.47 1.44 2.205 3.495 2.205 6.165V252h-5.67v-14.445c0-2.94-1.455-4.41-4.365-4.41-1.44 0-2.67.525-3.69 1.575-.99 1.02-1.485 2.445-1.485 4.275V252h-5.67v-23.22h5.49v3.33c1.77-2.58 4.185-3.87 7.245-3.87zM630.183 252h-5.67c-.27-.48-.48-1.425-.63-2.835-1.56 2.25-4.05 3.375-7.47 3.375-2.55 0-4.59-.615-6.12-1.845-1.5-1.23-2.25-2.94-2.25-5.13 0-4.23 2.97-6.645 8.91-7.245l3.51-.315c1.17-.15 2.01-.42 2.52-.81.51-.42.765-1.035.765-1.845 0-.99-.33-1.71-.99-2.16-.63-.48-1.71-.72-3.24-.72-1.65 0-2.835.285-3.555.855-.72.54-1.14 1.485-1.26 2.835h-5.58c.33-5.28 3.81-7.92 10.44-7.92 6.45 0 9.675 2.325 9.675 6.975v12.375c0 2.04.315 3.51.945 4.41zm-12.42-3.51c1.77 0 3.21-.48 4.32-1.44 1.11-.99 1.665-2.4 1.665-4.23v-2.115c-.54.48-1.425.795-2.655.945l-3.06.36c-1.5.18-2.58.54-3.24 1.08-.63.51-.945 1.26-.945 2.25s.33 1.77.99 2.34c.69.54 1.665.81 2.925.81zm32.098-16.515v-3.195h5.49v22.455c0 3.15-1.005 5.625-3.015 7.425-1.98 1.8-4.8 2.7-8.46 2.7-3.24 0-5.79-.72-7.65-2.16-1.83-1.44-2.835-3.42-3.015-5.94h5.58c.27 2.49 1.995 3.735 5.175 3.735 1.86 0 3.27-.48 4.23-1.44.99-.96 1.485-2.355 1.485-4.185v-2.925c-1.68 2.31-4.05 3.465-7.11 3.465-3.15 0-5.685-1.095-7.605-3.285-1.92-2.13-2.88-4.98-2.88-8.55 0-3.6.96-6.465 2.88-8.595 1.89-2.16 4.41-3.24 7.56-3.24 3.27 0 5.715 1.245 7.335 3.735zm-6.03 15.255c1.89 0 3.36-.63 4.41-1.89 1.05-1.26 1.575-3.015 1.575-5.265 0-2.25-.525-4.005-1.575-5.265-1.05-1.26-2.52-1.89-4.41-1.89-1.83 0-3.285.645-4.365 1.935-1.05 1.26-1.575 3.015-1.575 5.265 0 2.22.525 3.96 1.575 5.22 1.08 1.26 2.535 1.89 4.365 1.89zm38.012-6.435v1.35h-17.37c.21 1.98.825 3.48 1.845 4.5 1.05.99 2.445 1.485 4.185 1.485 2.58 0 4.35-1.11 5.31-3.33h5.445c-.6 2.37-1.86 4.26-3.78 5.67-1.92 1.38-4.26 2.07-7.02 2.07-3.45 0-6.24-1.11-8.37-3.33-2.13-2.22-3.195-5.16-3.195-8.82s1.05-6.6 3.15-8.82c2.13-2.22 4.905-3.33 8.325-3.33 3.51 0 6.3 1.155 8.37 3.465 2.07 2.31 3.105 5.34 3.105 9.09zm-11.52-8.145c-3.33 0-5.265 1.845-5.805 5.535h11.655c-.24-1.71-.87-3.06-1.89-4.05-1.02-.99-2.34-1.485-3.96-1.485zm27.601-4.23c.51 0 .975.03 1.395.09v5.22h-1.44c-2.16 0-3.825.555-4.995 1.665-1.14 1.08-1.71 2.685-1.71 4.815V252h-5.67v-23.22h5.49v4.14c1.29-3 3.6-4.5 6.93-4.5z" fill="#fff"/></g><defs><linearGradient id="b" x1="518.159" y1="-133.927" x2="518.159" y2="554.013" gradientUnits="userSpaceOnUse"><stop stop-color="#006CFF"/><stop offset="1" stop-color="#88BAFF" stop-opacity="0"/></linearGradient><linearGradient id="c" x1="220.237" y1="72.37" x2="801.754" y2="-18.506" gradientUnits="userSpaceOnUse"><stop stop-color="#178BD3"/><stop offset="1" stop-color="#fff" stop-opacity=".26"/></linearGradient><clipPath id="a"><path fill="#fff" d="M0 0h750v420.248H0z"/></clipPath></defs></svg>